<svg id="noun-prototype-4013866" xmlns="http://www.w3.org/2000/svg" width="126.115" height="80.293" viewBox="0 0 126.115 80.293">
  <path id="Path_281" data-name="Path 281" d="M108.852,25.1A36.7,36.7,0,0,1,97.9,28.49c-6.154.848-9.532-1.272-13.661,0a3.932,3.932,0,0,0-2.855,5.09H108.1l1.941-3.232Z" transform="translate(-1 -1)" fill="#d4af37" opacity="0.3"/>
  <path id="Path_280" data-name="Path 280" d="M108.852,25.1A36.7,36.7,0,0,1,97.9,28.49c-6.154.848-9.532-1.272-13.661,0a3.932,3.932,0,0,0-2.855,5.09H108.1l1.941-3.232Z" fill="#d4af37" opacity="0.3"/>
  <g id="Group_9" data-name="Group 9">
    <path id="Path_165" data-name="Path 165" d="M96.917,193.166h32.622a9.418,9.418,0,0,0,9.4-9.417V158a7.069,7.069,0,0,0,1.682-3.09h3.279a7.546,7.546,0,0,0,7.546-7.546A3.761,3.761,0,0,1,155.2,143.6h5.234a7.166,7.166,0,0,0,1.682,3.111v37.037a9.416,9.416,0,0,0,9.459,9.416H204.2a9.439,9.439,0,0,0,9.416-9.416v-61.46a9.438,9.438,0,0,0-9.416-9.416H171.577a9.418,9.418,0,0,0-9.4,9.417v14.356a7.069,7.069,0,0,0-1.682,3.09h-5.233a7.546,7.546,0,0,0-7.546,7.546,3.761,3.761,0,0,1-3.763,3.762h-3.279A7.05,7.05,0,0,0,139,147.955V122.289a9.416,9.416,0,0,0-9.459-9.416H96.917a9.439,9.439,0,0,0-9.416,9.416v61.46a9.438,9.438,0,0,0,9.416,9.416Zm75.943-44.14h18.413a7.437,7.437,0,1,0,0-14.819H172.86v-9.186a.9.9,0,0,1,.9-.9h28.207a.881.881,0,0,1,.883.9v49.394a.883.883,0,0,1-.883.883H173.681a.883.883,0,0,1-.9-.883Zm18.412-11.015h0a3.671,3.671,0,1,1,0,7.231H167.585a3.616,3.616,0,0,1,0-7.231Zm-19.694-21.355H204.2a5.632,5.632,0,0,1,5.633,5.633v61.46a5.632,5.632,0,0,1-5.633,5.633H171.578a5.634,5.634,0,0,1-5.612-5.633V148.814a7.513,7.513,0,0,0,1.682.19h1.492v25.413a4.686,4.686,0,0,0,4.54,4.687h28.291a4.687,4.687,0,0,0,4.688-4.687V125.022a4.687,4.687,0,0,0-4.688-4.687H173.68a4.687,4.687,0,0,0-4.687,4.687v9.186h-1.408a7.521,7.521,0,0,0-1.682.21V122.29a5.632,5.632,0,0,1,5.675-5.633Zm-43.321,28.963H109.844a7.428,7.428,0,1,0,0,14.8h18.412v14h0a.884.884,0,0,1-.9.883H99.146a.883.883,0,0,1-.883-.883V125.021a.881.881,0,0,1,.883-.9h28.291a.9.9,0,0,1,.9.9Zm-18.412,11.015h0a3.671,3.671,0,1,1,0-7.231h23.689a3.616,3.616,0,0,1,0,7.231ZM91.284,122.287a5.632,5.632,0,0,1,5.633-5.633h32.622a5.634,5.634,0,0,1,5.612,5.633v23.521a7.512,7.512,0,0,0-1.682-.19h-1.492v-20.6h0a4.686,4.686,0,0,0-4.54-4.687H99.146a4.687,4.687,0,0,0-4.688,4.687v49.394a4.687,4.687,0,0,0,4.688,4.687h28.291a4.687,4.687,0,0,0,4.687-4.687v-14h1.493a7.513,7.513,0,0,0,1.682-.19v23.521a5.634,5.634,0,0,1-5.76,5.633H96.917a5.632,5.632,0,0,1-5.633-5.633Z" transform="translate(-87.501 -112.873)" fill="#121212"/>
    <path id="Path_166" data-name="Path 166" d="M183.807,405.323h2.375a1.892,1.892,0,1,0,0-3.783h-2.375a1.892,1.892,0,1,0,0,3.783Z" transform="translate(-159.235 -332.197)" fill="#121212"/>
    <path id="Path_167" data-name="Path 167" d="M496.715,401.54H494.34a1.892,1.892,0,1,0,0,3.783h2.375a1.892,1.892,0,1,0,0-3.783Z" transform="translate(-395.172 -332.197)" fill="#121212"/>
  </g>
</svg>
