<svg id="Group_14" data-name="Group 14" xmlns="http://www.w3.org/2000/svg" width="96" height="83.236" viewBox="0 0 96 83.236">
  <path id="Path_175" data-name="Path 175" d="M566.367,1488.414c-2,2.927,0,14.082,0,14.082s-.967,11.683,9.2,11.2,6.755,0,6.755,0v16.225l8.9-5.159,10.8-12.473s18.415,1.289,23.689,0,1.588-4.834-2.595-5.155-13.882,2.04-25.121,1.207-13.482.083-19.835-4.537-2.629-10.094-5.578-13.942S568.369,1485.486,566.367,1488.414Z" transform="translate(-562 -1453.386)" fill="#d4af37" opacity="0.296"/>
  <path id="Path_177" data-name="Path 177" d="M627.431,1488.414c2,2.927,0,14.082,0,14.082s.967,11.683-9.2,11.2-6.755,0-6.755,0v16.225l-8.9-5.159-10.8-12.473s-18.415,1.289-23.689,0-1.588-4.834,2.595-5.155,13.882,2.04,25.121,1.207,13.482.083,19.835-4.537,2.629-10.094,5.578-13.942S625.429,1485.486,627.431,1488.414Z" transform="translate(-535 -1465.386)" fill="#d4af37" opacity="0.3"/>
  <path id="Path_174" data-name="Path 174" d="M566.367,1488.414c-2,2.927,0,14.082,0,14.082s-.967,11.683,9.2,11.2,6.755,0,6.755,0v16.225l8.9-5.159,10.8-12.473s18.415,1.289,23.689,0,1.588-4.834-2.595-5.155-13.882,2.04-25.121,1.207-13.482.083-19.835-4.537-2.629-10.094-5.578-13.942S568.369,1485.486,566.367,1488.414Z" transform="translate(-563 -1450.386)" fill="#d4af37" opacity="0.296"/>
  <path id="Path_176" data-name="Path 176" d="M627.431,1488.414c2,2.927,0,14.082,0,14.082s.967,11.683-9.2,11.2-6.755,0-6.755,0v16.225l-8.9-5.159-10.8-12.473s-18.415,1.289-23.689,0-1.588-4.834,2.595-5.155,13.882,2.04,25.121,1.207,13.482.083,19.835-4.537,2.629-10.094,5.578-13.942S625.429,1485.486,627.431,1488.414Z" transform="translate(-534 -1462.386)" fill="#d4af37" opacity="0.3"/>
  <g id="noun-communicate-117086" transform="translate(0 0)">
    <path id="Path_26" data-name="Path 26" d="M175.68,56.644H131.092a12.733,12.733,0,0,0-12.718,12.718v.283H105.119A12.733,12.733,0,0,0,92.4,82.364V108.5a12.732,12.732,0,0,0,12.718,12.718h3.833v16.58a2.088,2.088,0,0,0,3.564,1.475l18.056-18.056h19.142a12.761,12.761,0,0,0,9.358-4.165l9.221,9.22a2.087,2.087,0,0,0,3.563-1.475v-16.58h3.831A12.73,12.73,0,0,0,188.4,95.5V69.363a12.734,12.734,0,0,0-12.718-12.719Zm-25.97,60.395H129.7a2.085,2.085,0,0,0-1.475.611l-15.1,15.1V119.125a2.088,2.088,0,0,0-2.087-2.087h-5.92a8.553,8.553,0,0,1-8.544-8.543V82.365a8.554,8.554,0,0,1,8.544-8.545h13.255V95.494a12.732,12.732,0,0,0,12.718,12.716h19.138l5.888,5.888a8.577,8.577,0,0,1-6.408,2.94ZM184.224,95.5a8.553,8.553,0,0,1-8.543,8.543h-5.917a2.088,2.088,0,0,0-2.087,2.087v13.63l-7.383-7.383-.036-.036-7.687-7.687a2.086,2.086,0,0,0-1.475-.611h-20a8.554,8.554,0,0,1-8.545-8.543V69.364a8.554,8.554,0,0,1,8.545-8.545h44.588a8.554,8.554,0,0,1,8.543,8.545V95.5Z" transform="translate(-92.401 -56.643)" fill="#121212"/>
  </g>
</svg>
