<svg id="noun-visual-1453904" xmlns="http://www.w3.org/2000/svg" width="126.059" height="81.959" viewBox="0 0 126.059 81.959">
  <path id="Path_169" data-name="Path 169" d="M211.943,254.789a107.637,107.637,0,0,0-18.172-12.244c-10.241-5.578-26.184-12.229-43.97-12.229s-33.729,6.65-43.97,12.229a107.723,107.723,0,0,0-18.172,12.244,2.619,2.619,0,0,0,0,3.93,107.639,107.639,0,0,0,18.172,12.244c10.241,5.578,26.184,12.229,43.97,12.229s33.729-6.65,43.97-12.229a107.623,107.623,0,0,0,18.172-12.244,2.619,2.619,0,0,0,0-3.93Zm-80.912,1.965a18.769,18.769,0,1,1,18.77,18.769A18.791,18.791,0,0,1,131.031,256.755Zm-22.575-9.674a97.592,97.592,0,0,1,27.934-10.229,23.991,23.991,0,0,0,0,39.808,97.583,97.583,0,0,1-27.934-10.23,112.814,112.814,0,0,1-14.908-9.674A112.645,112.645,0,0,1,108.456,247.08Zm54.74,29.586a23.99,23.99,0,0,0,.013-39.817,97.583,97.583,0,0,1,27.934,10.229,112.889,112.889,0,0,1,14.9,9.673c-5.987,4.619-22.438,16.065-42.852,19.914Z" transform="translate(-86.771 -201.233)"/>
  <path id="Path_170" data-name="Path 170" d="M324.3,304.418a2.619,2.619,0,0,0-2.619,2.619,5.369,5.369,0,1,1-5.369-5.369,2.619,2.619,0,0,0,0-5.238,10.607,10.607,0,1,0,10.607,10.607,2.62,2.62,0,0,0-2.619-2.619Z" transform="translate(-253.28 -251.515)"/>
  <path id="Path_171" data-name="Path 171" d="M341.681,130.069a2.62,2.62,0,0,0,2.619-2.619V111.474a2.619,2.619,0,1,0-5.238,0V127.45A2.62,2.62,0,0,0,341.681,130.069Z" transform="translate(-278.651 -108.855)"/>
  <path id="Path_172" data-name="Path 172" d="M429.734,155.765a2.616,2.616,0,0,0,3.56-1.02l7.746-13.973a2.619,2.619,0,1,0-4.58-2.539L428.714,152.2a2.619,2.619,0,0,0,1.02,3.56Z" transform="translate(-346.586 -130.171)"/>
  <path id="Path_173" data-name="Path 173" d="M225.465,154.744a2.619,2.619,0,1,0,4.58-2.539L222.3,138.232a2.619,2.619,0,1,0-4.58,2.539Z" transform="translate(-186.115 -130.171)"/>
</svg>
