<svg id="Icon_ionic-logo-instagram" data-name="Icon ionic-logo-instagram" xmlns="http://www.w3.org/2000/svg" width="14.607" height="14.607" viewBox="0 0 14.607 14.607">
  <path id="Path_1" data-name="Path 1" d="M14.846,5.717A3.052,3.052,0,0,1,17.889,8.76v6.086a3.052,3.052,0,0,1-3.043,3.043H8.76a3.052,3.052,0,0,1-3.043-3.043V8.76A3.052,3.052,0,0,1,8.76,5.717h6.086m0-1.217H8.76A4.273,4.273,0,0,0,4.5,8.76v6.086a4.273,4.273,0,0,0,4.26,4.26h6.086a4.273,4.273,0,0,0,4.26-4.26V8.76a4.273,4.273,0,0,0-4.26-4.26Z" transform="translate(-4.5 -4.5)" fill="#969696"/>
  <path id="Path_2" data-name="Path 2" d="M24.538,10.826a.913.913,0,1,1,.913-.913A.911.911,0,0,1,24.538,10.826Z" transform="translate(-13.279 -6.566)" fill="#969696"/>
  <path id="Path_3" data-name="Path 3" d="M14.9,12.467A2.434,2.434,0,1,1,12.467,14.9,2.437,2.437,0,0,1,14.9,12.467m0-1.217A3.652,3.652,0,1,0,18.553,14.9,3.653,3.653,0,0,0,14.9,11.25Z" transform="translate(-7.598 -7.598)" fill="#969696"/>
</svg>
