<svg id="Icon_awesome-twitter" data-name="Icon awesome-twitter" xmlns="http://www.w3.org/2000/svg" width="17.825" height="14.477" viewBox="0 0 17.825 14.477">
  <path id="Icon_awesome-twitter-2" data-name="Icon awesome-twitter" d="M15.993,6.989c.011.158.011.317.011.475A10.323,10.323,0,0,1,5.61,17.858,10.324,10.324,0,0,1,0,16.218a7.557,7.557,0,0,0,.882.045A7.316,7.316,0,0,0,5.418,14.7,3.66,3.66,0,0,1,2,12.169a4.607,4.607,0,0,0,.69.057,3.864,3.864,0,0,0,.961-.124A3.654,3.654,0,0,1,.724,8.516V8.47a3.679,3.679,0,0,0,1.651.464A3.659,3.659,0,0,1,1.244,4.048,10.384,10.384,0,0,0,8.777,7.871a4.124,4.124,0,0,1-.09-.837,3.657,3.657,0,0,1,6.323-2.5,7.193,7.193,0,0,0,2.319-.882,3.643,3.643,0,0,1-1.606,2.013,7.324,7.324,0,0,0,2.1-.565A7.853,7.853,0,0,1,15.993,6.989Z" transform="translate(0 -3.381)" fill="#969696"/>
</svg>
