<svg id="Icon_awesome-linkedin-in" data-name="Icon awesome-linkedin-in" xmlns="http://www.w3.org/2000/svg" width="14.337" height="14.336" viewBox="0 0 14.337 14.336">
  <path id="Icon_awesome-linkedin-in-2" data-name="Icon awesome-linkedin-in" d="M3.209,14.337H.237V4.765H3.209ZM1.721,3.46A1.73,1.73,0,1,1,3.443,1.722,1.736,1.736,0,0,1,1.721,3.46ZM14.334,14.337H11.368V9.678c0-1.11-.022-2.535-1.545-2.535C8.277,7.143,8.04,8.35,8.04,9.6v4.739H5.071V4.765H7.922V6.071h.042a3.123,3.123,0,0,1,2.812-1.546c3.008,0,3.561,1.981,3.561,4.554v5.258Z" transform="translate(0 -0.001)" fill="#969696"/>
</svg>
