<svg id="Layer_2" data-name="Layer 2" xmlns="http://www.w3.org/2000/svg" width="82.725" height="205.227" viewBox="0 0 82.725 205.227">
  <g id="Burj_Al_Arab" data-name="Burj Al Arab">
    <path id="Path_645" data-name="Path 645" d="M93.732,181.631c.061-3.8,0-7.468-.129-11.08h0a1.358,1.358,0,0,0,1.27-1.358v-.109a1.358,1.358,0,0,0-1.358-1.249h0q-.306-5.7-.889-11.039h0a1.358,1.358,0,0,0,1.168-1.466v-.109a1.358,1.358,0,0,0-1.48-1.147q-.679-5.7-1.711-10.985h0a1.349,1.349,0,0,0-.516-2.648h0c-.774-3.768-1.636-7.353-2.58-10.781h0a1.358,1.358,0,0,0,.869-1.616v-.1a1.358,1.358,0,0,0-1.643-.9h0c-1.073-3.748-2.295-7.325-3.53-10.659,2.716-.272,4.589-.808,4.589-1.419,0-.9-3.951-1.623-8.826-1.623s-8.826.726-8.826,1.623,3.958,1.623,8.826,1.623h.543c9.885,26,16.613,65.773,3.225,120.207l3.395.835c1.018-4.135,1.908-8.147,2.716-12.146h0a1.751,1.751,0,0,0,.265,0,1.31,1.31,0,0,0,1.3-1.032v-.1a1.317,1.317,0,0,0-1.046-1.548h0q1.059-5.567,1.84-10.924h.19a1.358,1.358,0,0,0,1.31-1.134v-.1a1.31,1.31,0,0,0-1.12-1.494h0q.767-5.635,1.242-11.012h.122a1.358,1.358,0,0,0,1.317-1.208v-.1a1.358,1.358,0,0,0-1.208-1.432h0q.434-5.669.584-11.059h.048a1.358,1.358,0,0,0,1.317-1.29v-.109A1.358,1.358,0,0,0,93.732,181.631Z" transform="translate(-22.521 -36.393)" fill="#e0e0e0"/>
    <path id="Path_647" data-name="Path 647" d="M25.31,116.08V238.086h41.2c17.156-69.31.326-112.766-3.863-122.006Z" transform="translate(-8.127 -37.272)" fill="#e0e0e0"/>
    <g id="Group_107" data-name="Group 107" transform="translate(16.633 83.234)" opacity="0.25">
      <path id="Path_648" data-name="Path 648" d="M68.337,139.725H24.5V135.38H67.135C67.536,136.738,67.936,138.191,68.337,139.725Z" transform="translate(-24.5 -126.704)" fill="#fff"/>
      <path id="Path_649" data-name="Path 649" d="M70.326,152.515H24.5V148.17H69.4C69.722,149.562,70.028,151.008,70.326,152.515Z" transform="translate(-24.5 -130.81)" fill="#fff"/>
      <path id="Path_650" data-name="Path 650" d="M71.82,165.325H24.5V161H71.134Q71.5,163.084,71.82,165.325Z" transform="translate(-24.5 -134.93)" fill="#fff"/>
      <path id="Path_651" data-name="Path 651" d="M72.879,178.105H24.5V173.76H72.4C72.58,175.165,72.736,176.639,72.879,178.105Z" transform="translate(-24.5 -139.027)" fill="#fff"/>
      <path id="Path_652" data-name="Path 652" d="M73.524,190.945H24.5V186.6H73.246Q73.408,188.691,73.524,190.945Z" transform="translate(-24.5 -143.15)" fill="#fff"/>
      <path id="Path_653" data-name="Path 653" d="M73.789,203.692H24.5V199.34H73.721C73.721,200.772,73.775,202.219,73.789,203.692Z" transform="translate(-24.5 -147.241)" fill="#fff"/>
      <path id="Path_654" data-name="Path 654" d="M73.789,212.15q0,2.145-.088,4.345H24.5V212.15Z" transform="translate(-24.5 -151.354)" fill="#fff"/>
      <path id="Path_655" data-name="Path 655" d="M73.524,225c-.075,1.426-.149,2.879-.258,4.345H24.5V225Z" transform="translate(-24.5 -155.48)" fill="#fff"/>
      <path id="Path_656" data-name="Path 656" d="M72.92,237.74c-.122,1.426-.265,2.885-.421,4.345h-48V237.74Z" transform="translate(-24.5 -159.571)" fill="#fff"/>
      <path id="Path_657" data-name="Path 657" d="M72,250.53q-.265,2.145-.584,4.352H24.5V250.53Z" transform="translate(-24.5 -163.677)" fill="#fff"/>
      <path id="Path_658" data-name="Path 658" d="M70.77,263.33q-.346,2.152-.733,4.345H24.55V263.33Z" transform="translate(-24.516 -167.787)" fill="#fff"/>
      <path id="Path_659" data-name="Path 659" d="M69.206,276.12q-.414,2.159-.889,4.345H24.5V276.12Z" transform="translate(-24.5 -171.894)" fill="#fff"/>
      <path id="Path_660" data-name="Path 660" d="M67.359,288.93c-.326,1.432-.679,2.879-1.032,4.345H24.5V288.93Z" transform="translate(-24.5 -176.007)" fill="#fff"/>
      <path id="Path_661" data-name="Path 661" d="M65.771,126.945H24.5V122.6H64.216Q64.949,124.474,65.771,126.945Z" transform="translate(-24.5 -122.6)" fill="#fff"/>
    </g>
    <path id="Path_662" data-name="Path 662" d="M62.847,116.511H25.31v-.441H62.65C62.718,116.213,62.786,116.355,62.847,116.511Z" transform="translate(-8.127 -37.269)" fill="#bfbfbf"/>
    <path id="Path_663" data-name="Path 663" d="M64.619,122.713H25.31v-.883H64.286C64.388,122.108,64.476,122.4,64.619,122.713Z" transform="translate(-8.127 -39.119)" fill="#bfbfbf"/>
    <path id="Path_664" data-name="Path 664" d="M66.153,129.113H25.31v-.883H65.834A8.58,8.58,0,0,1,66.153,129.113Z" transform="translate(-8.127 -41.174)" fill="#bfbfbf"/>
    <path id="Path_665" data-name="Path 665" d="M67.5,135.5H25.31v-.883H67.246C67.334,134.912,67.416,135.2,67.5,135.5Z" transform="translate(-8.127 -43.225)" fill="#bfbfbf"/>
    <path id="Path_666" data-name="Path 666" d="M68.692,141.9H25.31V141H68.461C68.55,141.306,68.624,141.6,68.692,141.9Z" transform="translate(-8.127 -45.274)" fill="#bfbfbf"/>
    <path id="Path_667" data-name="Path 667" d="M69.744,148.3H25.31v-.876H69.541C69.609,147.705,69.67,148,69.744,148.3Z" transform="translate(-8.127 -47.335)" fill="#bfbfbf"/>
    <path id="Path_668" data-name="Path 668" d="M70.661,154.7H25.31v-.883H70.484C70.546,154.112,70.586,154.4,70.661,154.7Z" transform="translate(-8.127 -49.39)" fill="#bfbfbf"/>
    <path id="Path_669" data-name="Path 669" d="M71.446,161.1H25.28v-.883H71.3C71.344,160.512,71.4,160.8,71.446,161.1Z" transform="translate(-8.117 -51.445)" fill="#bfbfbf"/>
    <path id="Path_670" data-name="Path 670" d="M72.125,167.493H25.28v-.883H72C72.043,166.875,72.091,167.194,72.125,167.493Z" transform="translate(-8.117 -53.497)" fill="#bfbfbf"/>
    <path id="Path_671" data-name="Path 671" d="M72.7,173.9H25.31V173H72.623A7.989,7.989,0,0,0,72.7,173.9Z" transform="translate(-8.127 -55.549)" fill="#bfbfbf"/>
    <path id="Path_672" data-name="Path 672" d="M73.173,180.293H25.31v-.883H73.085C73.119,179.7,73.146,179.987,73.173,180.293Z" transform="translate(-8.127 -57.607)" fill="#bfbfbf"/>
    <path id="Path_673" data-name="Path 673" d="M73.542,186.693H25.34v-.883H73.481C73.5,186.1,73.529,186.394,73.542,186.693Z" transform="translate(-8.136 -59.662)" fill="#bfbfbf"/>
    <path id="Path_674" data-name="Path 674" d="M73.8,193.083H25.31V192.2H73.757C73.77,192.492,73.791,192.784,73.8,193.083Z" transform="translate(-8.127 -61.714)" fill="#bfbfbf"/>
    <path id="Path_675" data-name="Path 675" d="M73.981,199.483H25.31V198.6H73.981Z" transform="translate(-8.127 -63.769)" fill="#bfbfbf"/>
    <path id="Path_676" data-name="Path 676" d="M74.056,205.889H25.31V205H74.049C74.056,205.3,74.056,205.584,74.056,205.889Z" transform="translate(-8.127 -65.824)" fill="#bfbfbf"/>
    <path id="Path_677" data-name="Path 677" d="M74.056,211.4v.883H25.31V211.4Z" transform="translate(-8.127 -67.879)" fill="#bfbfbf"/>
    <path id="Path_678" data-name="Path 678" d="M73.981,217.8v.883H25.31V217.8Z" transform="translate(-8.127 -69.934)" fill="#bfbfbf"/>
    <path id="Path_679" data-name="Path 679" d="M73.811,224.19l-.041.883H25.31v-.883Z" transform="translate(-8.127 -71.986)" fill="#bfbfbf"/>
    <path id="Path_680" data-name="Path 680" d="M73.554,230.6c0,.285-.041.577-.061.876H25.29V230.6Z" transform="translate(-8.12 -74.044)" fill="#bfbfbf"/>
    <path id="Path_681" data-name="Path 681" d="M73.227,237l-.081.883H25.31V237Z" transform="translate(-8.127 -76.099)" fill="#bfbfbf"/>
    <path id="Path_682" data-name="Path 682" d="M72.82,243.39c-.034.292-.068.584-.1.883H25.31v-.883Z" transform="translate(-8.127 -78.151)" fill="#bfbfbf"/>
    <path id="Path_683" data-name="Path 683" d="M72.318,249.79a5.614,5.614,0,0,1-.115.883H25.31v-.883Z" transform="translate(-8.127 -80.206)" fill="#bfbfbf"/>
    <path id="Path_684" data-name="Path 684" d="M71.747,256.18c-.041.292-.081.584-.129.883H25.31v-.883Z" transform="translate(-8.127 -82.258)" fill="#bfbfbf"/>
    <path id="Path_685" data-name="Path 685" d="M71.089,262.59c-.041.292-.088.577-.136.883H25.31v-.883Z" transform="translate(-8.127 -84.316)" fill="#bfbfbf"/>
    <path id="Path_686" data-name="Path 686" d="M70.369,269c-.054.292-.109.577-.156.883H25.31V269Z" transform="translate(-8.127 -86.374)" fill="#bfbfbf"/>
    <path id="Path_687" data-name="Path 687" d="M69.568,275.38c-.061.292-.115.584-.177.883H25.31v-.883Z" transform="translate(-8.127 -88.423)" fill="#bfbfbf"/>
    <path id="Path_688" data-name="Path 688" d="M68.685,281.78l-.183.883H25.31v-.883Z" transform="translate(-8.127 -90.477)" fill="#bfbfbf"/>
    <path id="Path_689" data-name="Path 689" d="M67.735,288.17c-.061.292-.136.591-.2.883H25.31v-.883Z" transform="translate(-8.127 -92.529)" fill="#bfbfbf"/>
    <path id="Path_690" data-name="Path 690" d="M66.71,294.58l-.2.822H25.31v-.822Z" transform="translate(-8.127 -94.587)" fill="#407bff"/>
    <path id="Path_720" data-name="Path 720" d="M61.531,67.891C51.822,47.564,40.267,35.3,34.375,29.872V28.019h0V0H32.637V28.019H29.5v172.8h4.888V168.267H72.054A266.687,266.687,0,0,1,66.161,200.4l3.395.835C85.2,137.71,73.819,93.689,61.531,67.891Zm-27.156-33.1A125.933,125.933,0,0,1,58.421,69.608,147.106,147.106,0,0,1,65.76,88.326H34.388ZM66.5,90.668a171.921,171.921,0,0,1,6.613,36.471h-38.7V90.668Zm5.832,75.27H34.388V129.468H73.249a212.388,212.388,0,0,1-.937,36.471Z" transform="translate(-9.472)" fill="#d0d0d0"/>
    <ellipse id="Ellipse_60" data-name="Ellipse 60" cx="6.877" cy="1.623" rx="6.877" ry="1.623" transform="translate(10.211 85.468)" fill="#d0d0d0"/>
    <path id="Path_722" data-name="Path 722" d="M22.535,128.76a18.582,18.582,0,0,1-5.377-.645.292.292,0,0,1,0-.55,18.643,18.643,0,0,1,5.377-.638,18.7,18.7,0,0,1,5.384.638.292.292,0,0,1,0,.55,18.636,18.636,0,0,1-5.384.645Z" transform="translate(-5.447 -40.753)" fill="#fff"/>
    <path id="Path_723" data-name="Path 723" d="M9.467,291.58H78.6a1.141,1.141,0,0,1,1.141,1.141v4.99H8.34v-4.99a1.141,1.141,0,0,1,1.127-1.141Z" transform="translate(-2.678 -93.624)" fill="#e0e0e0"/>
    <path id="Path_725" data-name="Path 725" d="M79.33,298.53H3.395L0,300.411v.672H82.725v-.672Z" transform="translate(0 -95.856)" fill="#bfbfbf"/>
  </g>
</svg>
