<svg id="Layer_2" data-name="Layer 2" xmlns="http://www.w3.org/2000/svg" width="135.207" height="194.368" viewBox="0 0 135.207 194.368">
  <g id="Capa_1" data-name="Capa 1" transform="translate(0 0)">
    <path id="Path_325" data-name="Path 325" d="M291.048,25.917s1.463-5.058-1.345-7.827a6.161,6.161,0,0,1-.843.194c1.631,2.807.738,7.633.738,7.633Z" transform="translate(-167.107 -10.465)" fill="#d0d0d0"/>
    <path id="Path_326" data-name="Path 326" d="M275.952,18.07c-2.824,2.769-1.361,7.836-1.361,7.836h1.442s-.894-4.835.75-7.637C276.458,18.2,276.184,18.137,275.952,18.07Z" transform="translate(-158.633 -10.454)" fill="#d0d0d0"/>
    <path id="Path_327" data-name="Path 327" d="M266.414,15.452s-2.807-5.652,3.267-8.287h0l.185.11c-5.121,2.676-2.685,8.177-2.685,8.177h1.05s-1.947-5.286,1.968-8.008a7.621,7.621,0,0,0,2.651.51h-.333a31.949,31.949,0,0,0-.287,7.519h2.175a31.819,31.819,0,0,0-.282-7.515h-.245a7.3,7.3,0,0,0,2.575-.514h0c3.9,2.727,1.96,8.008,1.96,8.008h1.05S281.9,9.973,276.8,7.283a1.893,1.893,0,0,0,.185-.114c6.027,2.639,3.267,8.282,3.267,8.282h.59s3.136-5.774-3.743-8.362h0a13.839,13.839,0,0,1-2.462-1.909c-.8-.843-.927-1.264-1.151-1.332V3.283h.122s.173,0,.173-.16a.164.164,0,0,0-.164-.169h-.11V1.715h.046s.122,0,.122-.114a.11.11,0,0,0-.118-.11H273.5V.173a.153.153,0,1,0-.3,0V1.492h-.059s-.118,0-.118.11.126.114.126.114h.051V2.95h-.135a.164.164,0,0,0-.164.169c0,.156.173.16.173.16h.126v.569c-.232.084-.358.5-1.155,1.332a14.486,14.486,0,0,1-2.462,1.909h0c-6.879,2.588-3.743,8.362-3.743,8.362ZM276.53,7.414c.063-.03.122-.051.173-.08-.055.03-.114.051-.177.08Zm.561-.32Zm-.08.059.042-.025Zm.046-.034a.076.076,0,0,1,.029-.021.076.076,0,0,0-.034.021Zm-3.692.843h-.5c.156-.008.32,0,.493,0Zm-3.347-.607h0Zm-.422-.236h-.025Zm.067.046a.488.488,0,0,1-.059-.038.489.489,0,0,0,.067.038Z" transform="translate(-153.378 0)" fill="#d0d0d0"/>
    <path id="Path_328" data-name="Path 328" d="M261.712,56.247h18.449V47.7h.717V45.777h-3.524v-7.06h1.13V36.61H263.4v2.107h1.125v7.06H261V47.7h.716Zm3.924-1.18h-2.571V50.228c0-.991.573-1.8,1.286-1.8s1.264.805,1.264,1.8Zm4.738,0h-3.587V50.228a1.8,1.8,0,1,1,3.587,0Zm4.742,0h-3.587V50.228a1.8,1.8,0,1,1,3.587,0Zm3.734,0h-2.571V50.228c0-.991.573-1.8,1.29-1.8s1.264.805,1.264,1.8ZM264.793,44.829V41.061c0-.771.443-1.4,1-1.4s1,.628,1,1.4v3.768Zm2.9,0V41.061a1.4,1.4,0,1,1,2.786,0v3.768Zm3.684,0V41.061a1.4,1.4,0,1,1,2.794,0v3.768Zm3.7,0V41.061c0-.771.451-1.4,1.007-1.4s1,.628,1,1.4v3.768Z" transform="translate(-150.99 -21.179)" fill="#d0d0d0"/>
    <path id="Path_329" data-name="Path 329" d="M280.878,146.63h-.717v-8.544h.717V136.16H261v1.926h.716v8.544H261v1.926h19.882Zm-18.735-.843v-4.746c0-1.231.716-2.225,1.593-2.225s1.6.995,1.6,2.225v4.746Zm3.886,0v-4.746a2.221,2.221,0,1,1,4.443,0v4.746Zm5.134,0v-4.746a2.225,2.225,0,1,1,4.447,0v4.746Zm5.155,0v-4.746c0-1.231.712-2.225,1.593-2.225s1.593.995,1.593,2.225v4.746Z" transform="translate(-150.99 -78.769)" fill="#d0d0d0"/>
    <path id="Path_330" data-name="Path 330" d="M280.941,87.76H261.11a6.225,6.225,0,0,1,2.044,4.636H278.9A6.225,6.225,0,0,1,280.941,87.76Z" transform="translate(-151.054 -50.77)" fill="#d0d0d0"/>
    <rect id="Rectangle_41" data-name="Rectangle 41" width="15.747" height="14.356" transform="translate(112.101 42.339)" fill="#d0d0d0"/>
    <rect id="Rectangle_42" data-name="Rectangle 42" width="14.651" height="19.873" transform="translate(112.627 76.438)" fill="#d0d0d0"/>
    <path id="Path_331" data-name="Path 331" d="M263.617,172.179h14.664c0-3.094,2.613-5.479,2.613-5.479H261S263.617,169.086,263.617,172.179Z" transform="translate(-150.99 -96.437)" fill="#d0d0d0"/>
    <path id="Path_332" data-name="Path 332" d="M127.835,211.518H111.873V196.45H23.026v15.068H0l.518.982v1.463H7.89v1.593H.518V217H15.271v-3.039h7.376v1.593h-7.38V217H30.019v-4.5l.51-.982h0l-.51.982v.813h75.173v.717H30.027v.422l.177-.219a.093.093,0,0,1,.135,0l.514.514a.089.089,0,0,1,0,.131l-.506.527a.093.093,0,0,1-.135,0l-.177-.219v.422h75.157v.717H30.027v.641l-.636,1.02v9.1h0v-9.1H1.138v9.1H.518v1.441H7.89v1.593H.518v1.441H15.271v-4.459h0v1.442h7.376v1.593h-7.38v1.442H30.019l-.244.421h0l-.371.594v.59h0v4.076h76.425v4.371h-.636v.894H93.631v65.488h11.8V246.233c-.118-.034-.19-.046-.19-.046a11.347,11.347,0,0,1,1.517.472v61.357h7.823V256.656h3.587v51.359h3.578V256.656h3.587v51.359h3.574V256.656H130v-1.808H111.274v-1.812h18.714v-1.808H128.9c0-3.793,5.8-5.108,5.8-5.108v-1.442h-7.376v-1.593H134.7v-1.446h-.624v-9.1h-28.24l-.329-.527h0l-.249-.421h14.672v-1.441h-7.359v-1.6h7.372v-1.442h0v4.476h14.752V230.14h-7.376v-1.593h7.376v-1.442h-.624V218H105.888l-.636-1.02H119.94v-1.446h-7.372v-1.572h7.372V217h14.752v-1.446h-7.376v-1.593h7.376v-1.441l.514-.982Zm-17.492-13.661h.868v.843a.1.1,0,0,0-.042,0h-.843Zm0,1.058h.868v.771a.106.106,0,0,0-.042,0h-.843Zm0,.991h.843a.063.063,0,0,0,.042,0v.776a.063.063,0,0,0-.042,0h-.843Zm0,.986h.843a.063.063,0,0,0,.042,0v.776a.063.063,0,0,0-.042,0h-.843Zm0,.986h.843a.106.106,0,0,0,.042,0v.843h-.868Zm-.986-4.021h.754v.843h-.754Zm0,1.058h.754v.759h-.754Zm0,.991h.754v.754h-.754Zm0,.986h.754v.754h-.754Zm0,.986h.754v.843h-.754Zm-.986-4.021h.754v.843h-.754Zm0,1.058h.754v.759h-.754Zm0,.991h.754v.754h-.754Zm0,.986h.754v.754h-.754Zm0,.986h.754v.843h-.754Zm-.986-4.021h.754v.843h-.754Zm0,1.058h.754v.759h-.754Zm0,.991h.754v.754h-.754Zm0,.986h.754v.754h-.754Zm0,.986h.754v.843h-.754Zm-1.1-4.021h.872v.843h-.843a.122.122,0,0,0-.042,0Zm0,1.054h.872v.759h-.885Zm0,.982a.071.071,0,0,0,.042,0h.843v.754h-.843a.068.068,0,0,0-.042,0Zm0,.986a.072.072,0,0,0,.042,0h.843v.754h-.843a.068.068,0,0,0-.042,0Zm0,.991h.885v.843h-.872Zm-2.259-4.013h.873v.843h-.885Zm0,1.058h.873v.771h-.885Zm0,.991h.885v.776a.085.085,0,0,0-.042,0h-.843Zm0,.986h.885v.776a.084.084,0,0,0-.042,0h-.843Zm0,.986h.885v.843h-.872Zm-.986-4.021h.754v.843h-.754Zm0,1.058h.754v.759h-.754Zm0,.991h.754v.754h-.754Zm0,.986h.754v.754h-.754Zm0,.986h.754v.843h-.754Zm-.986-4.021h.75v.843h-.75Zm0,1.058h.75v.759h-.75Zm0,.991h.75v.754h-.75Zm0,.986h.75v.754h-.75Zm0,.986h.75v.843h-.75Zm-.986-4.021h.75v.843h-.75Zm0,1.058h.75v.759h-.75Zm0,.991h.75v.754h-.75Zm0,.986h.75v.754h-.75Zm0,.986h.75v.843h-.75Zm-1.1-4.021h.868v.843H99.94Zm0,1.054h.868v.759H99.94Zm0,.982a.08.08,0,0,0,.042,0h.843v.754H100a.076.076,0,0,0-.042,0Zm0,.986a.08.08,0,0,0,.042,0h.843v.754H100a.076.076,0,0,0-.042,0Zm0,.991h.885v.843h-.868ZM97.7,197.858h.872v.843a.192.192,0,0,0-.046,0h-.843Zm0,1.058h.872v.771h-.889Zm0,.991h.843a.1.1,0,0,0,.046,0v.776a.092.092,0,0,0-.046,0H97.7Zm0,.986h.843a.1.1,0,0,0,.046,0v.776a.093.093,0,0,0-.046,0H97.7Zm0,.986h.889v.843h-.872Zm-.982-4.021h.746v.843h-.746Zm0,1.058h.746v.759h-.746Zm0,.991h.746v.754h-.746Zm0,.986h.746v.754h-.746Zm0,.986h.746v.843h-.746Zm-.995-4.021h.759v.843h-.759Zm0,1.058h.759v.759h-.759Zm0,.991h.759v.754h-.759Zm0,.986h.759v.754h-.759Zm0,.986h.759v.843h-.759Zm-.986-4.021h.759v.843h-.759Zm0,1.058h.759v.759h-.759Zm0,.991h.759v.754h-.759Zm0,.986h.759v.754h-.759Zm0,.986h.759v.843h-.759Zm-1.1-4.021h.872v.843h-.885Zm0,1.054h.872v.759h-.885Zm0,.982a.08.08,0,0,0,.042,0h.843v.754h-.843a.076.076,0,0,0-.042,0Zm0,.986a.08.08,0,0,0,.042,0h.843v.754h-.843a.076.076,0,0,0-.042,0Zm0,.991h.885v.843h-.872Zm-2.259-4.013h.868v.843a.1.1,0,0,0-.042,0h-.843Zm0,1.058h.868v.771a.106.106,0,0,0-.042,0h-.843Zm0,.991h.843a.063.063,0,0,0,.042,0v.776a.063.063,0,0,0-.042,0h-.843Zm0,.986h.843a.063.063,0,0,0,.042,0v.776a.063.063,0,0,0-.042,0h-.843Zm0,.986h.843a.106.106,0,0,0,.042,0v.843h-.868Zm-.986-4.021h.754v.843h-.754Zm0,1.058h.754v.759h-.754Zm0,.991h.754v.754h-.754Zm0,.986h.754v.754h-.754Zm0,.986h.754v.843h-.754Zm-.986-4.021h.754v.843H89.4Zm0,1.058h.754v.759H89.4Zm0,.991h.754v.754H89.4Zm0,.986h.754v.754H89.4Zm0,.986h.754v.843H89.4Zm-.986-4.021h.754v.843h-.754Zm0,1.058h.754v.759h-.754Zm0,.991h.754v.754h-.754Zm0,.986h.754v.754h-.754Zm0,.986h.754v.843h-.754Zm-1.1-4.021h.868v.843h-.843a.081.081,0,0,0-.038,0Zm0,1.054h.868v.759H87.3Zm0,.982a.051.051,0,0,0,.038,0H88.2v.754h-.881Zm0,.986a.05.05,0,0,0,.038,0H88.2v.754h-.881Zm0,.991H88.2v.843h-.868Zm-2.263-4.013h.872v.843h-.885Zm0,1.058h.872v.771h-.885Zm0,.991H85.9a.08.08,0,0,0,.042,0v.776a.076.076,0,0,0-.042,0h-.843Zm0,.986H85.9a.08.08,0,0,0,.042,0v.776a.076.076,0,0,0-.042,0h-.843Zm0,.986h.885v.843h-.872Zm-.986-4.021h.754v.843h-.754Zm0,1.058h.754v.759h-.754Zm0,.991h.754v.754h-.754Zm0,.986h.754v.754h-.754Zm0,.986h.754v.843h-.754Zm-.986-4.021h.754v.843h-.754Zm0,1.058h.754v.759h-.754Zm0,.991h.754v.754h-.754Zm0,.986h.754v.754h-.754Zm0,.986h.754v.843h-.754Zm-.986-4.021h.75v.843h-.75Zm0,1.058h.75v.759h-.75Zm0,.991h.75v.754h-.75Zm0,.986h.75v.754h-.75Zm0,.986h.75v.843h-.75Zm-1.1-4.021h.864v.843h-.843a.1.1,0,0,0-.038,0Zm0,1.054h.864v.759h-.881Zm0,.982a.059.059,0,0,0,.038,0h.843v.754h-.843a.055.055,0,0,0-.038,0Zm0,.986a.059.059,0,0,0,.038,0h.843v.754h-.843a.055.055,0,0,0-.038,0Zm0,.991h.881v.843h-.864Zm-2.259-4.013H79.6v.843a.192.192,0,0,0-.046,0h-.822Zm0,1.058H79.6v.771h-.868Zm0,.991h.822a.1.1,0,0,0,.046,0v.776a.092.092,0,0,0-.046,0h-.822Zm0,.986h.822a.1.1,0,0,0,.046,0v.776a.093.093,0,0,0-.046,0h-.822Zm0,.986H79.6v.843h-.868Zm-.986-4.021H78.5v.843h-.754Zm0,1.058H78.5v.759h-.754Zm0,.991H78.5v.754h-.754Zm0,.986H78.5v.754h-.754Zm0,.986H78.5v.843h-.754Zm-.991-4.021h.754v.843h-.754Zm0,1.058h.754v.759h-.754Zm0,.991h.754v.754h-.754Zm0,.986h.754v.754h-.754Zm0,.986h.754v.843h-.754Zm-.986-4.021h.754v.843h-.754Zm0,1.058h.754v.759h-.754Zm0,.991h.754v.754h-.754Zm0,.986h.754v.754h-.754Zm0,.986h.754v.843h-.754Zm-1.1-4.021h.872v.843h-.885Zm0,1.054h.872v.759h-.885Zm0,.982a.08.08,0,0,0,.042,0h.843v.754H74.71a.076.076,0,0,0-.042,0Zm0,.986a.08.08,0,0,0,.042,0h.843v.754H74.71a.076.076,0,0,0-.042,0Zm0,.991h.885v.843H74.68Zm-2.259-4.013h.872v.843a.122.122,0,0,0-.042,0H72.4Zm0,1.058h.872v.771H72.4Zm0,.991h.843a.072.072,0,0,0,.042,0v.776a.067.067,0,0,0-.042,0h-.843Zm0,.986h.843a.072.072,0,0,0,.042,0v.776a.067.067,0,0,0-.042,0h-.843Zm0,.986h.885v.843h-.872Zm-.986-4.021h.754v.843h-.754Zm0,1.058h.754v.759h-.754Zm0,.991h.754v.754h-.754Zm0,.986h.754v.754h-.754Zm0,.986h.754v.843h-.754Zm-.986-4.021h.754v.843h-.754Zm0,1.058h.754v.759h-.754Zm0,.991h.754v.754h-.754Zm0,.986h.754v.754h-.754Zm0,.986h.754v.843h-.754Zm-.986-4.021H70.2v.843H69.45Zm0,1.058H70.2v.759H69.45Zm0,.991H70.2v.754H69.45Zm0,.986H70.2v.754H69.45Zm0,.986H70.2v.843H69.45Zm-1.1-4.021h.868v.843h-.843a.081.081,0,0,0-.038,0Zm0,1.054h.868v.759h-.881Zm0,.982a.051.051,0,0,0,.038,0h.843v.754H68.35Zm0,.986a.05.05,0,0,0,.038,0h.843v.754H68.35Zm0,.991h.881v.843h-.868Zm-2.289-4.013h.868v.843a.122.122,0,0,0-.042,0h-.843Zm0,1.058h.868v.771h-.885Zm0,.991H66.9a.072.072,0,0,0,.042,0v.776a.068.068,0,0,0-.042,0h-.843Zm0,.986H66.9a.072.072,0,0,0,.042,0v.776a.067.067,0,0,0-.042,0h-.843Zm0,.986h.885v.843h-.868Zm-.986-4.021h.754v.843h-.754Zm0,1.058h.754v.759h-.754Zm0,.991h.754v.754h-.754Zm0,.986h.754v.754h-.754Zm0,.986h.754v.843h-.754Zm-.986-4.021h.754v.843h-.754Zm0,1.058h.754v.759h-.754Zm0,.991h.754v.754h-.754Zm0,.986h.754v.754h-.754Zm0,.986h.754v.843h-.754Zm-.986-4.021h.754v.843H63.1Zm0,1.058h.754v.759H63.1Zm0,.991h.754v.754H63.1Zm0,.986h.754v.754H63.1Zm0,.986h.754v.843H63.1ZM62,197.858h.873v.843h-.885Zm0,1.054h.873v.759h-.885Zm0,.982a.08.08,0,0,0,.042,0h.843v.754H62.04a.076.076,0,0,0-.042,0Zm0,.986a.08.08,0,0,0,.042,0h.843v.754H62.04a.076.076,0,0,0-.042,0Zm0,.991h.885v.843H62.01Zm-2.259-4.013h.872v.843h-.885Zm0,1.058h.872v.771h-.885Zm0,.991h.843a.08.08,0,0,0,.042,0v.776a.076.076,0,0,0-.042,0h-.843Zm0,.986h.843a.08.08,0,0,0,.042,0v.776a.076.076,0,0,0-.042,0h-.843Zm0,.986h.885v.843h-.872Zm-.986-4.021h.754v.843h-.754Zm0,1.058h.754v.759h-.754Zm0,.991h.754v.754h-.754Zm0,.986h.754v.754h-.754Zm0,.986h.754v.843h-.754Zm-.986-4.021h.754v.843h-.754Zm0,1.058h.754v.759h-.754Zm0,.991h.754v.754h-.754Zm0,.986h.754v.754h-.754Zm0,.986h.754v.843h-.754Zm-.986-4.021h.754v.843H56.78Zm0,1.058h.754v.759H56.78Zm0,.991h.754v.754H56.78Zm0,.986h.754v.754H56.78Zm0,.986h.754v.843H56.78Zm-1.1-4.021h.873v.843H55.7a.123.123,0,0,0-.046,0Zm0,1.054h.873v.759h-.889Zm0,.982a.076.076,0,0,0,.046,0h.843v.754h-.843a.076.076,0,0,0-.046,0Zm0,.986a.076.076,0,0,0,.046,0h.843v.754h-.843a.076.076,0,0,0-.046,0Zm0,.991h.889v.843h-.872Zm-2.259-4.013h.872v.843H53.4Zm0,1.058h.872v.771H53.4Zm0,.991H54.3v.776a.085.085,0,0,0-.042,0h-.843Zm0,.986H54.3v.776a.084.084,0,0,0-.042,0h-.843Zm0,.986H54.3v.843h-.872Zm-.986-4.021h.754v.843H52.43Zm0,1.058h.754v.759H52.43Zm0,.991h.754v.754H52.43Zm0,.986h.754v.754H52.43Zm0,.986h.754v.843H52.43Zm-1.007-4.021h.759v.843h-.759Zm0,1.058h.759v.759h-.759Zm0,.991h.759v.754h-.759Zm0,.986h.759v.754h-.759Zm0,.986h.759v.843h-.759Zm-.982-4.021h.754v.843H50.44Zm0,1.058h.754v.759H50.44Zm0,.991h.754v.754H50.44Zm0,.986h.754v.754H50.44Zm0,.986h.754v.843H50.44Zm-1.1-4.021h.872v.843h-.885Zm0,1.054h.872v.759h-.885Zm0,.982a.08.08,0,0,0,.042,0h.843v.754h-.843a.076.076,0,0,0-.042,0Zm0,.986a.08.08,0,0,0,.042,0h.843v.754h-.843a.076.076,0,0,0-.042,0Zm0,.991h.885v.843h-.872Zm-2.259-4.013h.868v.843a.122.122,0,0,0-.042,0H47.06Zm0,1.058h.868v.771H47.06Zm0,.991h.843a.072.072,0,0,0,.042,0v.776a.067.067,0,0,0-.042,0h-.843Zm0,.986h.843a.072.072,0,0,0,.042,0v.776a.067.067,0,0,0-.042,0h-.843Zm0,.986h.885v.843h-.868Zm-.986-4.021h.754v.843H46.09Zm0,1.058h.754v.759H46.09Zm0,.991h.754v.754H46.09Zm0,.986h.754v.754H46.09Zm0,.986h.754v.843H46.09Zm-.986-4.021h.754v.843H45.1Zm0,1.058h.754v.759H45.1Zm0,.991h.754v.754H45.1Zm0,.986h.754v.754H45.1Zm0,.986h.754v.843H45.1Zm-.986-4.021h.754v.843h-.754Zm0,1.058h.754v.759h-.754Zm0,.991h.754v.754h-.754Zm0,.986h.754v.754h-.754Zm0,.986h.754v.843h-.754Zm-1.1-4.021h.872v.843H43Zm0,1.054h.872v.759H43Zm0,.982a.08.08,0,0,0,.042,0H43.9v.754h-.843a.076.076,0,0,0-.042,0Zm0,.986a.08.08,0,0,0,.042,0H43.9v.754h-.843a.076.076,0,0,0-.042,0Zm0,.991H43.9v.843h-.872Zm-2.259-4.013h.889v.843h-.885Zm0,1.058h.889v.771h-.885Zm0,.991H41.6a.08.08,0,0,0,.042,0v.776a.076.076,0,0,0-.042,0h-.843Zm0,.986H41.6a.08.08,0,0,0,.042,0v.776a.076.076,0,0,0-.042,0h-.843Zm0,.986h.885v.843h-.868Zm-.986-4.021h.754v.843h-.738Zm0,1.058h.754v.759h-.738Zm0,.991h.754v.754h-.738Zm0,.986h.754v.754h-.738Zm0,.986h.754v.843h-.738Zm-.986-4.021h.754v.843H38.8Zm0,1.058h.754v.759H38.8Zm0,.991h.754v.754H38.8Zm0,.986h.754v.754H38.8Zm0,.986h.754v.843H38.8Zm-.986-4.021h.771v.843h-.754Zm0,1.058h.771v.759h-.754Zm0,.991h.771v.754h-.754Zm0,.986h.771v.754h-.754Zm0,.986h.771v.843h-.754Zm-1.1-4.021h.872v.843h-.843a.123.123,0,0,0-.046,0Zm0,1.054h.872v.759h-.889Zm0,.982a.076.076,0,0,0,.046,0h.843v.754h-.843a.076.076,0,0,0-.046,0Zm0,.986a.076.076,0,0,0,.046,0h.843v.754h-.843a.076.076,0,0,0-.046,0Zm0,.991h.889v.843h-.872Zm-2.259-4.013h.889v.843h-.885Zm0,1.058h.889v.771h-.885Zm0,.991h.843a.08.08,0,0,0,.042,0v.776a.076.076,0,0,0-.042,0h-.843Zm0,.986h.843a.08.08,0,0,0,.042,0v.776a.076.076,0,0,0-.042,0h-.843Zm0,.986h.885v.843h-.868Zm-.986-4.021H34.2v.843h-.738Zm0,1.058H34.2v.759h-.738Zm0,.991H34.2v.754h-.738Zm0,.986H34.2v.754h-.738Zm0,.986H34.2v.843h-.738Zm-.991-4.021h.754v.843h-.754Zm0,1.058h.754v.759h-.754Zm0,.991h.754v.754h-.754Zm0,.991h.754v.754h-.754Zm0,.986h.754v.843h-.754Zm-.986-4.021h.754v.843h-.738Zm0,1.058h.754v.759h-.738Zm0,.99h.754v.754h-.738Zm0,.986h.754v.754h-.738Zm0,.986h.754v.843h-.738Zm-1.1-4.021h.872v.843h-.885Zm0,1.054h.872v.759h-.885Zm0,.982a.08.08,0,0,0,.042,0h.843v.754h-.843a.076.076,0,0,0-.042,0Zm0,.986a.08.08,0,0,0,.042,0h.843v.754h-.843a.076.076,0,0,0-.042,0Zm0,.99h.885v.843h-.868Zm-2.259-4.013h.868v.843a.1.1,0,0,0-.042,0h-.843Zm0,1.058h.868v.771h-.885Zm0,.99h.843a.063.063,0,0,0,.042,0v.776a.063.063,0,0,0-.042,0h-.843Zm0,.986h.843a.063.063,0,0,0,.042,0v.776a.063.063,0,0,0-.042,0h-.843Zm0,.986h.885v.843h-.868Zm-.986-4.021h.754v.843H27.14Zm0,1.058h.754v.759H27.14Zm0,.99h.754v.754H27.14Zm0,.986h.754v.754H27.14Zm0,.986h.754v.843H27.14Zm-.986-4.021h.754v.843h-.738Zm0,1.058h.754v.759h-.738Zm0,.99h.754v.754h-.738Zm0,.986h.754v.754h-.738Zm0,.986h.754v.843h-.738Zm-.986-4.021h.771v.843h-.754Zm0,1.058h.771v.759h-.754Zm0,.99h.771v.754h-.754Zm0,.986h.771v.754h-.754Zm0,.986h.771v.843h-.754Zm-1.1-4.021h.868v.843h-.881Zm0,1.054h.868v.759h-.881Zm0,.982a.059.059,0,0,0,.038,0h.843v.754h-.843a.055.055,0,0,0-.038,0Zm0,.986a.059.059,0,0,0,.038,0h.843v.754h-.843a.055.055,0,0,0-.038,0Zm0,.99h.881v.843h-.864Zm-8.784,13.661H7.89v-1.572h7.376Zm-5.4,6.225a1.513,1.513,0,0,1,.67-1.374l1.4-.9,1.4.9a1.513,1.513,0,0,1,.653,1.374v3.659H9.867Zm-5.1,0a1.726,1.726,0,0,1,.451-1.374l.969-.9.969.9a1.726,1.726,0,0,1,.451,1.374v3.659H4.763Zm-3.229,0a2.736,2.736,0,0,1,.232-1.374l.493-.9.493.9a2.735,2.735,0,0,1,.232,1.374v3.659H1.534Zm13.732,8.379H7.89v-1.593h7.376Zm12.278-8.379a2.735,2.735,0,0,1,.232-1.374l.493-.9.493.9a2.735,2.735,0,0,1,.232,1.374v3.659h-1.45Zm-4.636,0a1.726,1.726,0,0,1,.451-1.374l.965-.9.969.9a1.718,1.718,0,0,1,.455,1.374v3.659H22.925Zm-6.377,0a1.509,1.509,0,0,1,.658-1.374l1.4-.9,1.4.9a1.509,1.509,0,0,1,.666,1.374v3.659H16.548Zm6.1,6.786h7.385v1.593H22.647Zm7.38,2.377h0v-3.819h0Zm10.116-1.184h-.674v.485H39.2v.7h-.282v1.083H39.2v.7h.261v.485h.67v2.529H32.35v-2.529h.666V232.7H33.3V232h.282V230.92H33.3v-.7h-.261v-.485H32.35v-1.568a1.945,1.945,0,0,1,.767-1.737l3.119-1.846,3.111,1.846a1.939,1.939,0,0,1,.776,1.737Zm11.03,0h-.679v.485h-.261v.7H49.93v1.083h.287v.7h.261v.485h.679v2.529H43.38v-2.529h.666V232.7h.261v-.7h.282v-1.083h-.282v-.7h-.261v-.485H43.38v-1.568a1.945,1.945,0,0,1,.767-1.737l3.119-1.846,3.111,1.846a1.939,1.939,0,0,1,.776,1.737Zm27.33,5.981H56.792v-2.529h2.529V232.7h.261v-.7h.27v-1.083h-.291v-.7H59.3v-.485H58.036v-2.107c0-1.656,9.606-4.577,9.606-4.577h0s9.61,2.921,9.61,4.577v2.107h-1.29v.485H75.7v.7h-.282v1.083H75.7v.7h.261v.489h2.529Zm13.4-5.981H91.22v.485h-.266v.7h-.282v1.083h.282v.7h.266v.485h.666v2.529h-7.76v-2.529H84.8V232.7h.261v-.7h.287v-1.083h-.287v-.7H84.8v-.485h-.674v-1.568a1.942,1.942,0,0,1,.771-1.737l3.115-1.846,3.115,1.846a1.942,1.942,0,0,1,.771,1.737Zm11.031,0h-.67v.485H102v.7h-.282v1.083H102v.7h.261v.485h.67v2.529H95.157v-2.529h.67v-.485H96.1v-.7h.282v-1.083H96.1v-.7h-.261v-.485h-.67v-1.568a1.939,1.939,0,0,1,.776-1.737l3.111-1.846,3.115,1.846a1.942,1.942,0,0,1,.771,1.737Zm9.635,14.938h-7.317v-1.593h7.33Zm-8.43,50.04h-9.2V243.889h9.205Zm23.182-50.04h-7.376v-1.593H127.3Zm4.923-8.375a2.752,2.752,0,0,1,.236-1.382l.493-.894.493.894a2.8,2.8,0,0,1,.232,1.382v3.659h-1.454Zm-4.636,0a1.749,1.749,0,0,1,.455-1.382l.969-.894.969.894a1.766,1.766,0,0,1,.447,1.382v3.659H127.59Zm-6.369,0a1.534,1.534,0,0,1,.653-1.382l1.4-.894,1.4.894a1.534,1.534,0,0,1,.653,1.382v3.659h-4.105Zm-1.294,5.34v4.48h0v-1.442h-7.359v-1.593h7.372v-1.446Zm-5.374-5.34a1.534,1.534,0,0,1,.653-1.382l1.4-.894,1.4.894a1.534,1.534,0,0,1,.653,1.382v3.659h-4.105Zm-5.109,0a1.741,1.741,0,0,1,.459-1.382l.965-.894.969.894a1.757,1.757,0,0,1,.451,1.382v3.659h-2.845Zm-3.229,0a2.836,2.836,0,0,1,.228-1.382l.5-.894.489.894a2.752,2.752,0,0,1,.236,1.383v3.659h-1.45Zm21.1-6.158H119.94v-1.6h7.376Zm4.906-8.379a2.694,2.694,0,0,1,.236-1.374l.493-.9.493.9a2.736,2.736,0,0,1,.232,1.374v3.659h-1.454Zm-4.636,0a1.718,1.718,0,0,1,.455-1.374l.969-.9.969.9a1.734,1.734,0,0,1,.447,1.374v3.659h-2.841Zm-6.369,0a1.513,1.513,0,0,1,.653-1.374l1.4-.9,1.4.9a1.513,1.513,0,0,1,.653,1.374v3.659h-4.105Zm-21.075-14.04a.072.072,0,0,0,.051,0,1.6,1.6,0,0,1,.135.422h-.472v-.422Zm-.287-.236v-.24a2.227,2.227,0,0,1,.211.24Zm-5.29.236a.067.067,0,0,0,.051,0,1.594,1.594,0,0,1,.139.421h-.468v-.422Zm-.287-.236v-.24a1.842,1.842,0,0,1,.215.24Zm-5.29.236a.085.085,0,0,0,.055,0,1.753,1.753,0,0,1,.139.422h-.476v-.422Zm-.282-.236v-.24a2.229,2.229,0,0,1,.211.24Zm-5.29.236a.072.072,0,0,0,.051,0,1.593,1.593,0,0,1,.139.421h-.476v-.422Zm-.287-.236v-.24a1.58,1.58,0,0,1,.211.24Zm-5.29.236a.093.093,0,0,0,.055,0,1.961,1.961,0,0,1,.135.421h-.476v-.422Zm-.282-.236v-.24a1.373,1.373,0,0,1,.207.24Zm-5.29.236a.08.08,0,0,0,.051,0,1.753,1.753,0,0,1,.139.422h-.468v-.422Zm-.287-.236v-.24a1.58,1.58,0,0,1,.211.24Zm-5.328.236a.085.085,0,0,0,.055,0,1.6,1.6,0,0,1,.135.422h-.472v-.422Zm-.282-.236v-.24a2.23,2.23,0,0,1,.211.24Zm-5.29.236a.072.072,0,0,0,.051,0,1.593,1.593,0,0,1,.139.422H60.8v-.422Zm-.287-.236v-.24a1.842,1.842,0,0,1,.215.24Zm-5.29.236a.085.085,0,0,0,.055,0,1.758,1.758,0,0,1,.135.421h-.481v-.422Zm-.282-.236v-.24a2.231,2.231,0,0,1,.211.24Zm-5.29.236a.081.081,0,0,0,.051,0,1.593,1.593,0,0,1,.139.422h-.476v-.422Zm-.287-.236v-.24a1.58,1.58,0,0,1,.211.24Zm-5.29.236a.093.093,0,0,0,.055,0,1.96,1.96,0,0,1,.135.422h-.472v-.422Zm-.282-.236v-.24a1.859,1.859,0,0,1,.207.24Zm-5.3.232a.08.08,0,0,0,.051,0,1.753,1.753,0,0,1,.139.421h-.459v-.421Zm-.287-.236v-.24a1.582,1.582,0,0,1,.211.24ZM30,215.535H22.647v-1.572h7.368Zm5.4-3.372h-.485v-.539h.5Zm0-.767h-.485v-.422h.5Zm0-.653h-.485v-.421h.5Zm0-.658h-.485v-.421h.5Zm0-.653h-.485v-.422h.5Zm0-.649h-.485v-.422h.5Zm0-.653h-.455a1.758,1.758,0,0,1,.135-.421.093.093,0,0,0,.055,0h.278Zm0-.653h-.207a1.374,1.374,0,0,1,.207-.24Zm.641,4.687h-.421v-.54h.421Zm0-.767h-.421v-.422h.421Zm0-.653h-.421v-.421h.421Zm0-.658h-.421v-.421h.421Zm0-.653h-.421v-.422h.421Zm0-.649h-.421v-.422h.421Zm0-.653h-.421v-.421h.421Zm0-.653h-.421v-.35a.181.181,0,0,0,0-.046l.122-.076a.11.11,0,0,0,.1.051h.2Zm.792,4.687h-.544v-.539h.561Zm0-.767h-.544v-.422h.561Zm0-.653h-.544v-.422h.561Zm0-.658h-.544v-.421h.561Zm0-.653h-.544v-.422h.561Zm0-.649h-.544v-.422h.561Zm0-.653h-.544v-.421h.561Zm0-.653h-.544v-.421h.561Zm0-.653h-.544v-.084a.11.11,0,0,0,0-.063l.577-.367Zm.792,5.34h-.527v-.54h.561Zm0-.767h-.527v-.422h.561Zm0-.653h-.527v-.421h.561Zm0-.658h-.527v-.421h.561Zm0-.653h-.527v-.422h.561Zm0-.649h-.527v-.422h.561Zm0-.653h-.527v-.421h.561Zm0-.653h-.527v-.422h.561Zm0-.738v.084h-.527v-.514l.582.367a.088.088,0,0,0-.038.072Zm.641,5.425h-.421v-.54h.421Zm0-.767h-.421v-.422h.421Zm0-.653h-.421v-.421h.421Zm0-.658h-.421v-.421h.421Zm0-.653h-.421v-.422h.421Zm0-.649h-.421v-.422h.421Zm0-.653h-.421v-.422h.421Zm0-1v.35h-.421v-.422h.2a.1.1,0,0,0,.093-.051l.122.076a.181.181,0,0,0,.021.055ZM39,212.163h-.493v-.54h.51Zm0-.767h-.493v-.422h.51Zm0-.653h-.493v-.421h.51Zm0-.658h-.493v-.422h.51Zm0-.653h-.493v-.422h.51Zm0-.649h-.493v-.422h.5v.148Zm1.968,3.372h-.506v-.539h.506Zm0-.767h-.506v-.422h.506Zm0-.653h-.506v-.421h.506Zm0-.658h-.506v-.422h.506Zm0-.653h-.506V209h.506Zm0-.649h-.506v-.421h.5Zm0-.653H40.51a1.754,1.754,0,0,1,.139-.421.089.089,0,0,0,.051,0h.287Zm0-.653h-.211a1.851,1.851,0,0,1,.211-.24Zm.641,4.687h-.421v-.539h.421Zm0-.767h-.421v-.421h.421Zm0-.653h-.421v-.421h.421Zm0-.658h-.421v-.422h.421Zm0-.653h-.421V209h.421Zm0-.649h-.421v-.421h.421Zm0-.653h-.421V207.7h.421Zm0-.653h-.421v-.35a.181.181,0,0,0,0-.046l.122-.076a.11.11,0,0,0,.1.051h.2Zm.792,4.687h-.544v-.539h.561Zm0-.767h-.544v-.421h.561Zm0-.653h-.544v-.421h.561Zm0-.658h-.544v-.421h.561Zm0-.653h-.544V209h.561Zm0-.649h-.544v-.422h.561Zm0-.653h-.544V207.7h.561Zm0-.653h-.544v-.421h.561Zm0-.653h-.544v-.084a.114.114,0,0,0,0-.063l.582-.367Zm.792,5.34h-.561v-.54h.561Zm0-.767h-.561v-.421h.561Zm0-.653h-.561v-.421h.561Zm0-.658h-.561v-.422h.561Zm0-.653h-.561V209h.561Zm0-.649h-.561v-.422h.561Zm0-.653h-.561V207.7h.561Zm0-.653h-.561v-.422h.561Zm0-.738v.084h-.561V206.3l.577.367a.156.156,0,0,0,0,.08Zm.641,5.442h-.421v-.54h.421Zm0-.767h-.421v-.422h.421Zm0-.653h-.421v-.421h.421Zm0-.658h-.421v-.421h.421Zm0-.653h-.421v-.421h.421Zm0-.649h-.421v-.422h.421Zm0-.653h-.421v-.421h.421Zm0-1v.35h-.421v-.422h.2a.11.11,0,0,0,.1-.051l.122.076a.181.181,0,0,0,0,.046Zm.738,5.037h-.506v-.539h.506Zm0-.767h-.506v-.422h.506Zm0-.653h-.506v-.421h.506Zm0-.658h-.506v-.421h.506Zm0-.653h-.506v-.422h.506Zm0-.649h-.506v-.422h.5v.148Zm1.973,3.372H46.04v-.539h.506Zm0-.767H46.04v-.422h.506Zm0-.653H46.04v-.422h.506Zm0-.658H46.04v-.421h.506Zm0-.653H46.04v-.422h.506Zm0-.649H46.04v-.422h.5Zm0-.653h-.472a1.6,1.6,0,0,1,.131-.421.105.105,0,0,0,.059,0h.282Zm0-.653h-.181a1.844,1.844,0,0,1,.215-.24Zm.662,4.7h-.421v-.54h.421Zm0-.767h-.421v-.422h.421Zm0-.653h-.421v-.421h.421Zm0-.658h-.421v-.421h.421Zm0-.653h-.421v-.421h.421Zm0-.649h-.421v-.422h.421Zm0-.653h-.421v-.421h.421Zm0-.653h-.421v-.35a.093.093,0,0,0,0-.046l.126-.076a.1.1,0,0,0,.093.051h.2ZM48,212.172h-.556v-.539H48Zm0-.767h-.556v-.422H48Zm0-.653h-.556v-.421H48Zm0-.658h-.556v-.421H48Zm0-.653h-.556v-.422H48Zm0-.649h-.556v-.422H48Zm0-.653h-.556v-.422H48Zm0-.653h-.556v-.421H48Zm0-.653h-.556v-.084a.114.114,0,0,0-.021-.063l.577-.367Zm.792,5.34h-.561v-.539h.561Zm0-.767h-.561v-.422h.561Zm0-.653h-.561v-.421h.561Zm0-.658h-.561v-.421h.561Zm0-.653h-.561v-.421h.561Zm0-.649h-.561v-.422h.561Zm0-.653h-.561v-.421h.561Zm0-.653h-.561v-.421h.561Zm0-.738v.084h-.561v-.514l.582.367a.114.114,0,0,0-.025.063Zm.641,5.425h-.421v-.539h.421Zm0-.767h-.421v-.422h.421Zm0-.653h-.421v-.421h.421Zm0-.658h-.421v-.421h.421Zm0-.653h-.421v-.421h.421Zm0-.649h-.421v-.422h.421Zm0-.653h-.421v-.422h.421Zm0-1v.35h-.421v-.421h.2a.1.1,0,0,0,.093-.051l.122.076a.181.181,0,0,0,0,.046Zm.729,5.037h-.51v-.54h.51Zm0-.767h-.51v-.422h.51Zm0-.653h-.51v-.421h.51Zm0-.658h-.51v-.421h.51Zm0-.653h-.51v-.421h.51Zm0-.649h-.51v-.422h.51v.422Zm1.973,3.372h-.51v-.54h.51Zm0-.767h-.51v-.422h.51Zm0-.653h-.51v-.421h.51Zm0-.658h-.51v-.421h.51Zm0-.653h-.51v-.422h.51Zm0-.649h-.51v-.422h.506Zm0-.653h-.476a1.459,1.459,0,0,1,.139-.421.072.072,0,0,0,.051,0h.287Zm0-.653h-.215a1.582,1.582,0,0,1,.215-.24Zm.641,4.687H52.35v-.539h.421Zm0-.767H52.35v-.422h.421Zm0-.653H52.35v-.422h.421Zm0-.658H52.35v-.421h.421Zm0-.653H52.35v-.422h.421Zm0-.649H52.35v-.422h.421Zm0-.653H52.35v-.421h.421Zm0-.653H52.35v-.35a.072.072,0,0,0,0-.046l.126-.076a.11.11,0,0,0,.093.051h.207Zm.788,4.687H53v-.54h.556Zm0-.767H53v-.422h.556Zm0-.653H53v-.421h.556Zm0-.658H53v-.421h.556Zm0-.653H53v-.422h.556Zm0-.649H53v-.422h.556Zm0-.653H53v-.421h.556Zm0-.653H53v-.422h.556Zm0-.653H53v-.084a.093.093,0,0,0-.025-.063l.582-.367Zm.813,5.349h-.556v-.54h.556Zm0-.767h-.556v-.422h.556Zm0-.653h-.556v-.421h.556Zm0-.658h-.556v-.421h.556Zm0-.653h-.556v-.421h.556Zm0-.649h-.556v-.422h.556Zm0-.653h-.556v-.421h.556Zm0-.653h-.556v-.422h.556Zm0-.738v.084h-.556v-.514l.577.367A.16.16,0,0,0,54.373,206.747Zm.641,5.425h-.421v-.539h.421Zm0-.767h-.421v-.422h.421Zm0-.653h-.421v-.421h.421Zm0-.658h-.421v-.421h.421Zm0-.653h-.421v-.422h.421Zm0-.649h-.421v-.422h.421Zm0-.653h-.421v-.422h.421Zm0-1v.35h-.421v-.421h.2a.1.1,0,0,0,.093-.051l.126.076a.189.189,0,0,0-.017.046Zm.742,5.037h-.54v-.539h.506Zm0-.767h-.54v-.422h.506Zm0-.653h-.54v-.421h.506Zm0-.658h-.54v-.421h.506Zm0-.653h-.54v-.421h.506Zm0-.649h-.54v-.422h.5v.148Zm1.973,3.372h-.506v-.54h.506Zm0-.767h-.506v-.422h.506Zm0-.653h-.506v-.421h.506Zm0-.658h-.506v-.421h.506Zm0-.653h-.506v-.422h.506Zm0-.649h-.506v-.422h.5Zm0-.653h-.489a1.757,1.757,0,0,1,.135-.421.084.084,0,0,0,.055,0h.282Zm0-.653h-.211a2.235,2.235,0,0,1,.211-.24Zm.641,4.687h-.422v-.54h.422Zm0-.767h-.422v-.422h.422Zm0-.653h-.422v-.421h.422Zm0-.658h-.422v-.421h.422Zm0-.653h-.422v-.422h.422Zm0-.649h-.422v-.422h.422Zm0-.653h-.422v-.422h.422Zm0-.653h-.422v-.35a.105.105,0,0,0,0-.046l.122-.076a.122.122,0,0,0,.1.051h.2Zm.792,4.687h-.573v-.54h.556Zm0-.767h-.573v-.422h.556Zm0-.653h-.573v-.421h.556Zm0-.658h-.573v-.422h.556Zm0-.653h-.573v-.422h.556Zm0-.649h-.573v-.422h.556Zm0-.653h-.573v-.421h.556Zm0-.653h-.573v-.422h.556Zm0-.653h-.573v-.084a.16.16,0,0,0-.021-.063l.577-.367Zm.788,5.34H59.4v-.54h.552Zm0-.767H59.4v-.422h.552Zm0-.653H59.4v-.421h.552Zm0-.658H59.4v-.422h.552Zm0-.653H59.4v-.422h.552Zm0-.649H59.4v-.421h.552Zm0-.653H59.4v-.421h.552Zm0-.653H59.4v-.422h.552Zm0-.738v.084H59.4v-.514l.569.367a.156.156,0,0,0-.034.072Zm.641,5.425h-.421v-.54h.421Zm0-.767h-.421v-.422h.421Zm0-.653h-.421v-.421h.421Zm0-.658h-.421v-.421h.421Zm0-.653h-.421v-.422h.421Zm0-.649h-.421v-.421h.421Zm0-.653h-.421v-.421h.421Zm0-1v.35h-.421v-.421h.2a.114.114,0,0,0,.1-.051l.118.076a.181.181,0,0,0-.013.055Zm.738,5.037h-.506v-.54h.506Zm0-.767h-.506v-.422h.506Zm0-.653h-.506v-.421h.506Zm0-.658h-.506v-.421h.506Zm0-.653h-.506v-.422h.506Zm0-.649h-.506v-.422h.506Zm1.977,3.372h-.5v-.54h.506Zm0-.767h-.5v-.421h.506Zm0-.653h-.5v-.421h.506Zm0-.658h-.5v-.422h.506Zm0-.653h-.5V209h.506Zm0-.649h-.5v-.422h.5Zm0-.653h-.5a1.593,1.593,0,0,1,.139-.421.071.071,0,0,0,.051,0h.287Zm0-.653h-.211a1.582,1.582,0,0,1,.211-.24Zm.641,4.687h-.421v-.54h.421Zm0-.767h-.421v-.421h.421Zm0-.653h-.421v-.421h.421Zm0-.658h-.421v-.421h.421Zm0-.653h-.421V209h.421Zm0-.649h-.421v-.421h.421Zm0-.653h-.421V207.7h.421Zm0-.653h-.421v-.35a.182.182,0,0,0,0-.046l.122-.076a.105.105,0,0,0,.1.051h.2Zm.792,4.687h-.561v-.54h.561Zm0-.767h-.561v-.421h.561Zm0-.653h-.561v-.421h.561Zm0-.658h-.561v-.421h.561Zm0-.653h-.561V209h.561Zm0-.649h-.561v-.421h.561Zm0-.653h-.561V207.7h.561Zm0-.653h-.561v-.422h.561Zm0-.653h-.561v-.084a.156.156,0,0,0,0-.063l.577-.367Zm.788,5.34h-.573v-.54h.556Zm0-.767h-.573v-.421h.556Zm0-.653h-.573v-.421h.556Zm0-.658h-.573v-.421h.556Zm0-.653h-.573V209h.556Zm0-.649h-.573v-.421h.556Zm0-.653h-.573V207.7h.556Zm0-.653h-.573v-.422h.556Zm0-.738v.084h-.573V206.3l.577.367a.114.114,0,0,0-.021.08Zm.641,5.425h-.421v-.54h.421Zm0-.767h-.421v-.422h.421Zm0-.653h-.421v-.421h.421Zm0-.658h-.421v-.421h.421Zm0-.653h-.421V209h.421Zm0-.649h-.421v-.421h.421Zm0-.653h-.421V207.7h.421Zm0-1v.35h-.421v-.422h.2a.118.118,0,0,0,.1-.051l.122.076a.1.1,0,0,0-.017.063Zm.738,5.037H66.4v-.54H66.9Zm0-.767H66.4v-.422H66.9Zm0-.653H66.4v-.421H66.9Zm0-.658H66.4v-.422H66.9Zm0-.653H66.4V209H66.9Zm0-.649H66.4v-.422h.5v.148Zm2.006,3.372H68.4v-.539h.506Zm0-.767H68.4v-.422h.506Zm0-.653H68.4V210.3h.506Zm0-.658H68.4v-.422h.506Zm0-.653H68.4v-.422h.506Zm0-.649H68.4v-.421h.5Zm0-.653h-.472a1.961,1.961,0,0,1,.135-.422.092.092,0,0,0,.055,0h.282Zm0-.653H68.7a1.373,1.373,0,0,1,.207-.24Zm.636,4.712h-.421v-.54h.421Zm0-.767h-.421v-.422h.421Zm0-.653h-.421v-.421h.421Zm0-.658h-.421v-.421h.421Zm0-.653h-.421v-.421h.421Zm0-.649h-.421v-.422h.421Zm0-.653h-.421v-.421h.421Zm0-.653h-.421v-.35a.181.181,0,0,0,0-.046l.122-.076a.114.114,0,0,0,.1.051h.2Zm.792,4.687h-.561v-.539h.561Zm0-.767h-.561v-.422h.561Zm0-.653h-.561v-.421h.561Zm0-.658h-.561v-.421h.561Zm0-.653h-.561v-.422h.561Zm0-.649h-.561v-.422h.561Zm0-.653h-.561v-.422h.561Zm0-.653h-.561v-.421h.561Zm0-.653h-.561v-.084a.11.11,0,0,0,0-.063l.577-.367Zm.792,5.34h-.573v-.539h.561Zm0-.767h-.573v-.422h.561Zm0-.653h-.573v-.421h.561Zm0-.658h-.573v-.421h.561Zm0-.653h-.573v-.421h.561Zm0-.649h-.573v-.422h.561Zm0-.653h-.573v-.421h.561Zm0-.653h-.573v-.421h.561Zm0-.738v.084h-.573v-.514l.582.367a.089.089,0,0,0-.021.063Zm.641,5.425h-.421v-.539h.421Zm0-.767h-.421v-.422h.421Zm0-.653h-.421v-.421h.421Zm0-.658h-.421v-.421h.421Zm0-.653h-.421v-.421h.421Zm0-.649h-.421v-.422h.421Zm0-.653h-.421v-.422h.421Zm0-1v.35h-.421v-.421h.2a.1.1,0,0,0,.093-.051l.122.076a.181.181,0,0,0,0,.046Zm.725,5.037h-.506v-.54H72.5Zm0-.767h-.506v-.422H72.5Zm0-.653h-.506v-.421H72.5Zm0-.658h-.506v-.421H72.5Zm0-.653h-.506v-.421H72.5Zm0-.649h-.506v-.422H72.5a.8.8,0,0,1,0,.148Zm1.973,3.372h-.51v-.54h.51Zm0-.767h-.51v-.422h.51Zm0-.653h-.51v-.421h.51Zm0-.658h-.51v-.421h.51Zm0-.653h-.51v-.422h.51Zm0-.649h-.51v-.274a.843.843,0,0,1,0-.148h.5Zm0-.653h-.481a1.753,1.753,0,0,1,.139-.421.1.1,0,0,0,.059,0h.282Zm0-.653h-.215a1.582,1.582,0,0,1,.215-.24Zm.641,4.687h-.421v-.539h.421Zm0-.767h-.421v-.422h.421Zm0-.653h-.421v-.422h.421Zm0-.658h-.421v-.421h.421Zm0-.653h-.421v-.422h.421Zm0-.649h-.421v-.422h.421Zm0-.653h-.421v-.421h.421Zm0-.653h-.421v-.35a.1.1,0,0,0,0-.046l.122-.076a.11.11,0,0,0,.1.051h.2Zm.788,4.687h-.561v-.54H75.9Zm0-.767h-.561v-.422H75.9Zm0-.653h-.561v-.421H75.9Zm0-.658h-.561v-.421H75.9Zm0-.653h-.561v-.422H75.9Zm0-.649h-.561v-.422H75.9Zm0-.653h-.561v-.421H75.9Zm0-.653h-.561v-.422H75.9Zm0-.653h-.561v-.084a.089.089,0,0,0-.021-.063l.582-.367Zm.813,5.349h-.561v-.54h.561Zm0-.767h-.561v-.422h.561Zm0-.653h-.561v-.421h.561Zm0-.658h-.561v-.421h.561Zm0-.653h-.561v-.421h.561Zm0-.649h-.561v-.422h.561Zm0-.653h-.561v-.421h.561Zm0-.653h-.561v-.422h.561Zm0-.738v.084h-.561v-.514l.577.367A.156.156,0,0,0,76.712,206.747Zm.641,5.425h-.421v-.539h.421Zm0-.767h-.421v-.422h.421Zm0-.653h-.421v-.421h.421Zm0-.658h-.421v-.421h.421Zm0-.653h-.421v-.422h.421Zm0-.649h-.421v-.422h.421Zm0-.653h-.421v-.422h.421Zm0-1v.35h-.421v-.421h.2a.11.11,0,0,0,.1-.051l.122.076a.181.181,0,0,0-.017.046Zm.738,5.037h-.535v-.539h.506Zm0-.767h-.535v-.422h.506Zm0-.653h-.535v-.421h.506Zm0-.658h-.535v-.421h.506Zm0-.653h-.535v-.421h.506Zm0-.649h-.535v-.422h.5v.148Zm1.973,3.372h-.506v-.54h.506Zm0-.767h-.506v-.422h.506Zm0-.653h-.506v-.421h.506Zm0-.658h-.506v-.421h.506Zm0-.653h-.506v-.422h.506Zm0-.649h-.506v-.422h.5Zm0-.653h-.472a1.6,1.6,0,0,1,.135-.421.093.093,0,0,0,.055,0h.282Zm0-.653h-.211a1.583,1.583,0,0,1,.211-.24Zm.641,4.687h-.421v-.54H80.7Zm0-.767h-.421v-.422H80.7Zm0-.653h-.421v-.421H80.7Zm0-.658h-.421v-.421H80.7Zm0-.653h-.421v-.422H80.7Zm0-.649h-.421v-.422H80.7Zm0-.653h-.421v-.422H80.7Zm0-.653h-.421v-.35a.1.1,0,0,0,0-.046l.126-.076a.105.105,0,0,0,.093.051h.2Zm.792,4.687h-.569v-.54h.561Zm0-.767h-.569v-.422h.561Zm0-.653h-.569v-.421h.561Zm0-.658h-.569v-.422h.561Zm0-.653h-.569v-.422h.561Zm0-.649h-.569v-.422h.561Zm0-.653h-.569v-.421h.561Zm0-.653h-.569v-.422h.561Zm0-.653h-.569v-.084a.114.114,0,0,0,0-.063l.582-.367Zm.788,5.34h-.556v-.54h.556Zm0-.767h-.556v-.422h.556Zm0-.653h-.556v-.421h.556Zm0-.658h-.556v-.422h.556Zm0-.653h-.556v-.422h.556Zm0-.649h-.556v-.421h.556Zm0-.653h-.556v-.421h.556Zm0-.653h-.556v-.422h.556Zm0-.738v.084h-.556v-.514l.577.367a.114.114,0,0,0-.038.072Zm.641,5.425H82.5v-.54h.421Zm0-.767H82.5v-.422h.421Zm0-.653H82.5v-.421h.421Zm0-.658H82.5v-.421h.421Zm0-.653H82.5v-.422h.421Zm0-.649H82.5v-.421h.421Zm0-.653H82.5v-.421h.421Zm0-1v.35H82.5v-.421h.2a.11.11,0,0,0,.1-.051l.118.076a.181.181,0,0,0-.013.055Zm.742,5.037h-.51v-.54h.51Zm0-.767h-.51v-.422h.51Zm0-.653h-.51v-.421h.51Zm0-.658h-.51v-.421h.51Zm0-.653h-.51v-.422h.51Zm0-.649h-.51v-.422h.506v.148Zm1.973,3.372h-.506v-.54h.506Zm0-.767h-.506v-.421h.506Zm0-.653h-.506v-.421h.506Zm0-.658h-.506v-.422h.506Zm0-.653h-.506V209h.506Zm0-.649h-.506v-.422h.5Zm0-.653h-.5a1.6,1.6,0,0,1,.135-.421.08.08,0,0,0,.051,0h.287Zm0-.653h-.215a1.842,1.842,0,0,1,.215-.24Zm.641,4.687h-.421v-.54h.421Zm0-.767h-.421v-.421h.421Zm0-.653h-.421v-.421h.421Zm0-.658h-.421v-.421h.421Zm0-.653h-.421V209h.421Zm0-.649h-.421v-.421h.421Zm0-.653h-.421V207.7h.421Zm0-.653h-.421v-.35a.1.1,0,0,0,0-.046l.122-.076a.122.122,0,0,0,.1.051h.2Zm.788,4.687h-.556v-.54h.556Zm0-.767h-.556v-.421h.556Zm0-.653h-.556v-.421h.556Zm0-.658h-.556v-.421h.556Zm0-.653h-.556V209h.556Zm0-.649h-.556v-.421h.556Zm0-.653h-.556V207.7h.556Zm0-.653h-.556v-.422h.556Zm0-.653h-.556v-.084a.114.114,0,0,0-.021-.063l.577-.367Zm.792,5.34H87.3v-.54h.561Zm0-.767H87.3v-.421h.561Zm0-.653H87.3v-.421h.561Zm0-.658H87.3v-.421h.561Zm0-.653H87.3V209h.561Zm0-.649H87.3v-.421h.561Zm0-.653H87.3V207.7h.561Zm0-.653H87.3v-.422h.561Zm0-.738v.084H87.3V206.3l.577.367a.156.156,0,0,0-.034.08Zm.641,5.425H88.08v-.54H88.5Zm0-.767H88.08v-.422H88.5Zm0-.653H88.08v-.421H88.5Zm0-.658H88.08v-.421H88.5Zm0-.653H88.08V209H88.5Zm0-.649H88.08v-.421H88.5Zm0-.653H88.08V207.7H88.5Zm0-1v.35H88.08v-.422h.2a.11.11,0,0,0,.1-.051l.122.076a.181.181,0,0,0-.013.063Zm.738,5.037h-.506v-.54h.506Zm0-.767h-.506v-.422h.506Zm0-.653h-.506v-.421h.506Zm0-.658h-.506v-.422h.506Zm0-.653h-.506V209h.506Zm0-.649h-.506v-.422h.5v.148Zm1.973,3.372h-.506v-.539h.506Zm0-.767h-.506v-.422h.506Zm0-.653h-.506V210.3h.506Zm0-.658h-.506v-.422h.506Zm0-.653h-.506v-.422h.506Zm0-.649h-.506v-.421h.5Zm0-.653h-.472a1.593,1.593,0,0,1,.139-.421.067.067,0,0,0,.051,0h.282Zm0-.653H91a2.227,2.227,0,0,1,.211-.24Zm.641,4.687H91.43v-.539h.422Zm0-.767H91.43v-.421h.422Zm0-.653H91.43V210.3h.422Zm0-.658H91.43v-.422h.422Zm0-.653H91.43v-.422h.422Zm0-.649H91.43v-.421h.422Zm0-.653H91.43v-.421h.422Zm0-.653H91.43v-.35a.1.1,0,0,0,0-.046l.122-.076a.11.11,0,0,0,.1.051h.2Zm.8,4.687h-.561v-.539h.561Zm0-.767h-.561v-.421h.561Zm0-.653h-.561V210.3h.561Zm0-.658h-.561v-.422h.561Zm0-.653h-.561v-.422h.561Zm0-.649h-.561v-.422h.561Zm0-.653h-.561v-.421h.561Zm0-.653h-.561v-.422h.561Zm0-.653h-.561v-.084a.16.16,0,0,0-.021-.063l.582-.367Zm.784,5.34H92.88v-.54h.552Zm0-.767H92.88v-.421h.552Zm0-.653H92.88V210.3h.552Zm0-.658H92.88v-.422h.552Zm0-.653H92.88v-.422h.552Zm0-.649H92.88v-.421h.552Zm0-.653H92.88v-.421h.552Zm0-.653H92.88v-.422h.552Zm0-.738v.084H92.88v-.514l.573.367a.16.16,0,0,0-.038.089Zm.641,5.425h-.421v-.54h.421Zm0-.767h-.421v-.421h.421Zm0-.653h-.421V210.3h.421Zm0-.658h-.421v-.422h.421Zm0-.653h-.421v-.422h.421Zm0-.649h-.421v-.421h.421Zm0-.653h-.421v-.421h.421Zm0-1v.35h-.421v-.422h.2a.11.11,0,0,0,.1-.051l.126.076a.072.072,0,0,0-.021.072Zm.742,5.037h-.527v-.54h.51Zm0-.767h-.527v-.421h.51Zm0-.653h-.527V210.3h.51Zm0-.658h-.527v-.422h.51Zm0-.653h-.527v-.421h.51Zm0-.649h-.527v-.421h.506v.147Zm1.973,3.372h-.506v-.54h.506Zm0-.767h-.506v-.421h.506Zm0-.653h-.506V210.3h.506Zm0-.658h-.506v-.421h.506Zm0-.653h-.506v-.421h.506Zm0-.649h-.506v-.421h.5Zm0-.653h-.476a1.752,1.752,0,0,1,.139-.421.072.072,0,0,0,.051,0h.287Zm0-.653h-.215a2.772,2.772,0,0,1,.215-.24Zm.641,4.687h-.421v-.54h.421Zm0-.767h-.421v-.421h.421Zm0-.653h-.421V210.3h.421Zm0-.658h-.421v-.421h.421Zm0-.653h-.421v-.421h.421Zm0-.649h-.421v-.421h.421Zm0-.653h-.421v-.422h.421Zm0-.653h-.421v-.35a.181.181,0,0,0,0-.046l.122-.076a.11.11,0,0,0,.1.051h.2Zm.78,4.721h-.561v-.54h.561Zm0-.767h-.561v-.422h.561Zm0-.653h-.561v-.421h.561Zm0-.658h-.561v-.421h.561Zm0-.653h-.561v-.421h.561Zm0-.649h-.561v-.422h.561Zm0-.653h-.561v-.421h.561Zm0-.653h-.561v-.422h.561Zm0-.653h-.561v-.084a.156.156,0,0,0,0-.063l.577-.367Zm.788,5.34H98.44v-.539H99Zm0-.767H98.44v-.422H99Zm0-.653H98.44v-.421H99Zm0-.658H98.44v-.421H99Zm0-.653H98.44v-.422H99Zm0-.649H98.44v-.422H99Zm0-.653H98.44v-.422H99Zm0-.653H98.44v-.421H99Zm0-.738v.084H98.44v-.514l.577.367a.114.114,0,0,0-.025.063Zm.641,5.425h-.422v-.539h.422Zm0-.767h-.422v-.422h.422Zm0-.653h-.422v-.421h.422Zm0-.658h-.422v-.421h.422Zm0-.653h-.422v-.421h.422Zm0-.649h-.422v-.422h.422Zm0-.653h-.422v-.421h.422Zm0-1v.35h-.422v-.421h.2a.118.118,0,0,0,.1-.051l.122.076a.1.1,0,0,0,0,.046Zm.738,5.037h-.506v-.539h.506Zm0-.767h-.506v-.422h.506Zm0-.653h-.506v-.421h.506Zm0-.658h-.506v-.421h.506Zm0-.653h-.506v-.421h.506Zm0-.649h-.506v-.422h.5a.819.819,0,0,1,0,.148Zm-68.113,6.1-.514.514a.088.088,0,0,1-.131,0l-.514-.514a.089.089,0,0,1,0-.131l.51-.514a.088.088,0,0,1,.131,0l.514.514a.089.089,0,0,1,0,.131Zm1.408,0-.514.514a.088.088,0,0,1-.131,0l-.514-.514a.089.089,0,0,1,0-.131l.514-.514a.088.088,0,0,1,.131,0l.514.514a.089.089,0,0,1,0,.131Zm1.412,0-.518.514a.093.093,0,0,1-.135,0l-.514-.514a.1.1,0,0,1,0-.131l.514-.514a.093.093,0,0,1,.135,0l.51.514a.1.1,0,0,1,.008.131Zm1.412,0-.244.244-.219.261a.1.1,0,0,1-.089.034.093.093,0,0,1-.093-.025l-.244-.244-.266-.215a.105.105,0,0,1-.03-.093.1.1,0,0,1,.025-.093l.236-.24.219-.27a.131.131,0,0,1,.1-.025.089.089,0,0,1,.089,0l.244.245.261.219a.08.08,0,0,1,.03.089.1.1,0,0,1-.017.114Zm1.408,0-.514.514a.088.088,0,0,1-.131,0l-.51-.514a.089.089,0,0,1,0-.131l.51-.514a.088.088,0,0,1,.131,0l.514.514a.089.089,0,0,1,0,.131Zm1.408,0-.51.514a.093.093,0,0,1-.135,0l-.51-.514a.089.089,0,0,1,0-.131l.51-.514a.093.093,0,0,1,.135,0l.51.514a.089.089,0,0,1,0,.131Zm1.412,0-.514.514a.093.093,0,0,1-.135,0l-.51-.514a.1.1,0,0,1,0-.131l.51-.514a.093.093,0,0,1,.135,0l.514.514a.089.089,0,0,1,0,.131Zm1.412,0-.518.514a.084.084,0,0,1-.126,0l-.514-.514a.089.089,0,0,1,0-.131l.514-.514a.084.084,0,0,1,.126,0l.518.514a.1.1,0,0,1,.017.131Zm1.408,0-.51.514a.093.093,0,0,1-.135,0l-.51-.514a.089.089,0,0,1,0-.131l.51-.514a.093.093,0,0,1,.135,0l.51.514a.088.088,0,0,1,0,.131Zm1.408,0-.51.514a.088.088,0,0,1-.131,0l-.514-.514a.089.089,0,0,1,0-.131l.514-.514a.088.088,0,0,1,.131,0l.51.514a.084.084,0,0,1,0,.131Zm1.412,0-.514.514a.088.088,0,0,1-.131,0l-.514-.514a.089.089,0,0,1,0-.131l.514-.514a.088.088,0,0,1,.131,0l.514.514a.089.089,0,0,1,0,.131Zm1.412,0-.514.514a.093.093,0,0,1-.135,0l-.51-.514a.089.089,0,0,1,0-.131l.51-.514a.093.093,0,0,1,.135,0l.514.514a.1.1,0,0,1,0,.131Zm1.408,0-.514.514a.084.084,0,0,1-.126,0l-.518-.514a.1.1,0,0,1,0-.131l.518-.514a.084.084,0,0,1,.126,0l.514.514a.089.089,0,0,1,0,.131Zm1.412,0-.514.514a.088.088,0,0,1-.131,0l-.514-.514a.089.089,0,0,1,0-.131l.514-.514a.088.088,0,0,1,.131,0l.514.514a.1.1,0,0,1-.013.131Zm1.408,0-.51.514a.093.093,0,0,1-.135,0l-.514-.514a.1.1,0,0,1,0-.131l.514-.514a.093.093,0,0,1,.135,0l.51.514a.089.089,0,0,1,0,.131Zm1.408,0-.51.514a.093.093,0,0,1-.135,0l-.5-.514a.1.1,0,0,1,0-.131l.51-.514a.093.093,0,0,1,.135,0l.51.514a.089.089,0,0,1-.013.131Zm1.412,0-.514.514a.088.088,0,0,1-.131,0l-.514-.514a.089.089,0,0,1,0-.131l.514-.514a.088.088,0,0,1,.131,0l.514.514a.088.088,0,0,1,0,.131Zm1.412,0-.518.514a.084.084,0,0,1-.126,0l-.514-.514a.089.089,0,0,1,0-.131l.514-.514a.084.084,0,0,1,.126,0l.518.514a.1.1,0,0,1,0,.131Zm1.408,0-.51.514a.093.093,0,0,1-.135,0l-.514-.514a.089.089,0,0,1,0-.131l.51-.514a.093.093,0,0,1,.135,0l.51.514a.089.089,0,0,1,0,.131Zm1.412,0-.514.514a.088.088,0,0,1-.131,0l-.514-.514a.089.089,0,0,1,0-.131l.514-.514a.088.088,0,0,1,.131,0l.514.514a.088.088,0,0,1,0,.131Zm1.408,0-.51.514a.093.093,0,0,1-.135,0l-.51-.514a.089.089,0,0,1,0-.131l.51-.514a.093.093,0,0,1,.135,0l.51.514a.088.088,0,0,1,0,.131Zm1.412,0-.514.514a.093.093,0,0,1-.135,0l-.527-.514a.1.1,0,0,1,0-.131l.51-.514a.093.093,0,0,1,.135,0l.514.514a.088.088,0,0,1,.017.131Zm1.412,0-.518.514a.084.084,0,0,1-.126,0l-.518-.514a.1.1,0,0,1,0-.131l.518-.514a.084.084,0,0,1,.126,0l.518.514a.11.11,0,0,1,0,.131Zm1.408,0-.51.514a.093.093,0,0,1-.135,0l-.514-.514a.089.089,0,0,1,0-.131l.514-.514a.093.093,0,0,1,.135,0l.51.514a.089.089,0,0,1,0,.131Zm1.408,0-.51.514a.093.093,0,0,1-.135,0l-.51-.514a.089.089,0,0,1,0-.131l.51-.514a.093.093,0,0,1,.135,0l.51.514a.089.089,0,0,1,0,.131Zm1.412,0-.493.514a.088.088,0,0,1-.131,0l-.514-.514a.089.089,0,0,1,0-.131l.514-.514a.088.088,0,0,1,.131,0l.514.514a.089.089,0,0,1-.021.131Zm1.412,0-.514.514a.084.084,0,0,1-.126,0l-.51-.514a.089.089,0,0,1,0-.131l.51-.514a.084.084,0,0,1,.126,0l.514.514a.089.089,0,0,1,0,.131Zm1.416,0-.514.514a.093.093,0,0,1-.135,0l-.51-.514a.089.089,0,0,1,0-.131l.51-.514a.093.093,0,0,1,.135,0l.514.514a.11.11,0,0,1,0,.131Zm1.408,0-.514.514a.088.088,0,0,1-.131,0l-.514-.514a.089.089,0,0,1,0-.131l.514-.514a.088.088,0,0,1,.131,0l.514.514a.089.089,0,0,1,0,.131Zm1.408,0-.514.514a.088.088,0,0,1-.131,0L72,214.89a.1.1,0,0,1,0-.131l.514-.514a.088.088,0,0,1,.131,0l.514.514a.088.088,0,0,1,0,.131Zm1.408,0-.51.514a.088.088,0,0,1-.131,0l-.514-.514a.089.089,0,0,1,0-.131l.514-.514a.088.088,0,0,1,.131,0l.51.514a.088.088,0,0,1,0,.131Zm1.416,0-.531.514a.088.088,0,0,1-.131,0l-.518-.514a.1.1,0,0,1,0-.131l.518-.514a.088.088,0,0,1,.131,0l.514.514a.1.1,0,0,1,.017.131Zm1.408,0-.514.514a.088.088,0,0,1-.131,0l-.51-.514a.089.089,0,0,1,0-.131l.51-.514a.088.088,0,0,1,.131,0l.514.514a.088.088,0,0,1,0,.131Zm1.408,0-.51.514a.093.093,0,0,1-.135,0l-.51-.514a.089.089,0,0,1,0-.131l.51-.514a.093.093,0,0,1,.135,0l.51.514a.084.084,0,0,1,0,.131Zm1.412,0-.514.514a.093.093,0,0,1-.135,0l-.51-.514a.089.089,0,0,1,0-.131l.51-.514a.093.093,0,0,1,.135,0l.514.514a.089.089,0,0,1,0,.131Zm1.408,0-.514.514a.084.084,0,0,1-.126,0l-.518-.514a.1.1,0,0,1,0-.131l.518-.514a.084.084,0,0,1,.126,0l.514.514a.088.088,0,0,1,0,.131Zm1.412,0-.514.514a.088.088,0,0,1-.131,0l-.514-.514a.1.1,0,0,1,0-.131l.514-.514a.088.088,0,0,1,.131,0l.514.514a.1.1,0,0,1,.008.131Zm1.408,0-.51.514a.088.088,0,0,1-.131,0l-.514-.514a.089.089,0,0,1,0-.131l.514-.514a.088.088,0,0,1,.131,0l.51.514a.084.084,0,0,1,0,.131Zm1.412,0-.514.514a.088.088,0,0,1-.131,0l-.514-.514a.089.089,0,0,1,0-.131l.514-.514a.088.088,0,0,1,.131,0l.514.514a.089.089,0,0,1,0,.131Zm1.408,0-.51.514a.093.093,0,0,1-.135,0l-.51-.514a.089.089,0,0,1,0-.131l.51-.514a.093.093,0,0,1,.135,0l.51.514a.089.089,0,0,1,0,.131Zm1.416,0-.518.514a.093.093,0,0,1-.135,0l-.51-.514a.1.1,0,0,1,0-.131l.51-.514a.093.093,0,0,1,.135,0l.518.514a.1.1,0,0,1,0,.131Zm1.408,0-.514.514a.088.088,0,0,1-.131,0l-.5-.514a.089.089,0,0,1,0-.131l.514-.514a.088.088,0,0,1,.131,0l.514.514a.1.1,0,0,1-.017.131Zm1.408,0-.51.514a.093.093,0,0,1-.135,0l-.514-.514a.089.089,0,0,1,0-.131l.514-.514a.093.093,0,0,1,.135,0l.51.514a.089.089,0,0,1,0,.131Zm1.408,0-.51.514a.093.093,0,0,1-.135,0l-.51-.514a.089.089,0,0,1,0-.131l.51-.514a.093.093,0,0,1,.135,0l.51.514a.088.088,0,0,1,0,.131Zm1.412,0-.514.514a.088.088,0,0,1-.131,0l-.51-.514a.089.089,0,0,1,0-.131l.514-.514a.088.088,0,0,1,.131,0l.514.514a.089.089,0,0,1,0,.131Zm1.408,0-.514.514a.084.084,0,0,1-.126,0l-.514-.514a.089.089,0,0,1,0-.131l.514-.514a.084.084,0,0,1,.126,0l.514.514a.089.089,0,0,1,0,.131Zm1.412,0-.514.514a.088.088,0,0,1-.131,0l-.514-.514a.1.1,0,0,1,0-.131l.514-.514a.088.088,0,0,1,.131,0l.514.514a.1.1,0,0,1,0,.131Zm1.412,0-.514.514a.088.088,0,0,1-.131,0l-.527-.514a.089.089,0,0,1,0-.131l.514-.514a.089.089,0,0,1,.131,0l.514.514a.089.089,0,0,1,.013.131Zm1.408,0-.51.514a.093.093,0,0,1-.135,0l-.51-.514a.089.089,0,0,1,0-.131l.51-.514a.093.093,0,0,1,.135,0l.51.514a.088.088,0,0,1,0,.131Zm1.408,0-.51.514a.093.093,0,0,1-.135,0l-.51-.514a.084.084,0,0,1,0-.131l.51-.514a.093.093,0,0,1,.135,0l.51.514a.089.089,0,0,1,0,.131Zm1.416,0-.518.514a.084.084,0,0,1-.126,0l-.518-.514a.089.089,0,0,1,0-.131l.518-.514a.084.084,0,0,1,.126,0l.518.514a.11.11,0,0,1,0,.131Zm1.408,0-.489.514a.1.1,0,0,1-.139,0l-.514-.514a.1.1,0,0,1,0-.131l.514-.514a.1.1,0,0,1,.139,0l.51.514A.1.1,0,0,1,104.176,214.89Zm.9.514a.093.093,0,0,1-.135,0l-.51-.514a.089.089,0,0,1,0-.131l.51-.514a.093.093,0,0,1,.135,0l.118.143v.872Zm.177,14.752v-1.61h7.313v1.593Zm9.3-8.379a1.513,1.513,0,0,1,.653-1.374l1.4-.9,1.4.9a1.513,1.513,0,0,1,.653,1.374v3.659h-4.105Zm-5.109,0a1.71,1.71,0,0,1,.459-1.374l.948-.919.969.9a1.726,1.726,0,0,1,.451,1.374v3.659h-2.845Zm-3.224,0a2.778,2.778,0,0,1,.228-1.374l.5-.9.489.9a2.693,2.693,0,0,1,.236,1.374v3.659h-1.454Zm-.969-6.225v-.35l-.055.072v-.843l.055.072v-.421H105.2v-.118h7.368v1.593Zm22.069,0h-7.376v-1.589h7.376Z" transform="translate(0 -113.647)" fill="#d0d0d0"/>
    <path id="Path_333" data-name="Path 333" d="M306.579,273.07l-.518.514a.109.109,0,0,0,0,.131l.518.514a.093.093,0,0,0,.135,0l.51-.514a.1.1,0,0,0,0-.131l-.51-.514a.093.093,0,0,0-.135,0Z" transform="translate(-177.045 -157.956)" fill="#d0d0d0"/>
    <path id="Path_334" data-name="Path 334" d="M303.249,273.071l-.519.514a.089.089,0,0,0,0,.131l.519.514a.084.084,0,0,0,.126,0l.518-.514a.1.1,0,0,0,0-.131l-.518-.514a.084.084,0,0,0-.126,0Z" transform="translate(-175.115 -157.956)" fill="#d0d0d0"/>
    <rect id="Rectangle_43" data-name="Rectangle 43" width="0.91" height="0.91" rx="0.22" transform="translate(133.181 115.699) rotate(-45)" fill="#d0d0d0"/>
    <rect id="Rectangle_44" data-name="Rectangle 44" width="0.91" height="0.91" rx="0.22" transform="matrix(0.706, -0.708, 0.708, 0.706, 131.775, 115.695)" fill="#d0d0d0"/>
    <path id="Path_335" data-name="Path 335" d="M309.92,273.064l-.51.514a.089.089,0,0,0,0,.131l.51.514a.093.093,0,0,0,.135,0l.514-.514a.088.088,0,0,0,0-.131l-.506-.514a.093.093,0,0,0-.143,0Z" transform="translate(-178.979 -157.949)" fill="#d0d0d0"/>
    <path id="Path_336" data-name="Path 336" d="M292.589,273.07a.093.093,0,0,0-.135,0l-.489.514a.1.1,0,0,0,0,.131l.51.514a.093.093,0,0,0,.135,0l.51-.514a.089.089,0,0,0,0-.131Z" transform="translate(-168.889 -157.956)" fill="#d0d0d0"/>
    <path id="Path_337" data-name="Path 337" d="M295.905,273.07a.088.088,0,0,0-.131,0l-.514.514a.089.089,0,0,0,0,.131l.514.514a.088.088,0,0,0,.131,0l.514-.514a.11.11,0,0,0,0-.131Z" transform="translate(-170.793 -157.956)" fill="#d0d0d0"/>
    <path id="Path_338" data-name="Path 338" d="M299.249,273.07a.093.093,0,0,0-.135,0l-.518.514a.1.1,0,0,0,0,.131l.518.514a.093.093,0,0,0,.135,0l.51-.514a.1.1,0,0,0,0-.131Z" transform="translate(-172.724 -157.956)" fill="#d0d0d0"/>
    <rect id="Rectangle_45" data-name="Rectangle 45" width="0.91" height="0.91" rx="0.22" transform="matrix(0.706, -0.708, 0.708, 0.706, 120.169, 115.702)" fill="#d0d0d0"/>
    <rect id="Rectangle_46" data-name="Rectangle 46" width="0.91" height="0.91" rx="0.22" transform="translate(121.579 115.689) rotate(-45)" fill="#d0d0d0"/>
    <path id="Path_339" data-name="Path 339" d="M281.615,273.07l-.514.514a.088.088,0,0,0,0,.131l.514.514a.089.089,0,0,0,.131,0l.514-.514a.089.089,0,0,0,0-.131l-.514-.514a.089.089,0,0,0-.131,0Z" transform="translate(-162.602 -157.956)" fill="#d0d0d0"/>
    <path id="Path_340" data-name="Path 340" d="M278.26,273.07l-.51.514a.089.089,0,0,0,0,.131l.51.514a.093.093,0,0,0,.135,0l.51-.514a.089.089,0,0,0,0-.131l-.51-.514a.093.093,0,0,0-.135,0Z" transform="translate(-160.664 -157.956)" fill="#d0d0d0"/>
    <rect id="Rectangle_47" data-name="Rectangle 47" width="0.915" height="0.915" rx="0.22" transform="translate(115.62 115.697) rotate(-45)" fill="#d0d0d0"/>
    <path id="Path_341" data-name="Path 341" d="M268.259,273.07l-.514.514a.1.1,0,0,0,0,.131l.514.514a.089.089,0,0,0,.131,0l.518-.514a.11.11,0,0,0,0-.131l-.518-.514a.089.089,0,0,0-.131,0Z" transform="translate(-154.878 -157.956)" fill="#d0d0d0"/>
    <path id="Path_342" data-name="Path 342" d="M271.585,273.07l-.514.514a.088.088,0,0,0,0,.131l.514.514a.089.089,0,0,0,.131,0l.514-.514a.1.1,0,0,0,0-.131l-.514-.514a.088.088,0,0,0-.131,0Z" transform="translate(-156.799 -157.956)" fill="#d0d0d0"/>
    <rect id="Rectangle_48" data-name="Rectangle 48" width="0.91" height="0.91" rx="0.22" transform="matrix(0.708, -0.706, 0.706, 0.708, 111.062, 115.697)" fill="#d0d0d0"/>
    <path id="Path_343" data-name="Path 343" d="M260.91,273.07a.093.093,0,0,0-.135,0l-.514.514a.088.088,0,0,0,0,.131l.514.514a.093.093,0,0,0,.135,0l.51-.514a.1.1,0,0,0,0-.131Z" transform="translate(-150.546 -157.956)" fill="#d0d0d0"/>
    <path id="Path_344" data-name="Path 344" d="M257.594,273.071a.084.084,0,0,0-.126,0l-.5.514a.11.11,0,0,0,0,.131l.518.514a.084.084,0,0,0,.126,0l.514-.514a.089.089,0,0,0,0-.131Z" transform="translate(-148.646 -157.956)" fill="#d0d0d0"/>
    <path id="Path_345" data-name="Path 345" d="M254.215,273.07a.093.093,0,0,0-.135,0l-.51.514a.088.088,0,0,0,0,.131l.51.514a.093.093,0,0,0,.135,0l.514-.514a.088.088,0,0,0,0-.131Z" transform="translate(-146.675 -157.956)" fill="#d0d0d0"/>
    <rect id="Rectangle_49" data-name="Rectangle 49" width="0.91" height="0.91" rx="0.22" transform="translate(105.422 115.695) rotate(-45)" fill="#d0d0d0"/>
    <path id="Path_346" data-name="Path 346" d="M306.579,307.56l-.518.514a.109.109,0,0,0,0,.131l.518.514a.1.1,0,0,0,.135,0l.51-.514a.1.1,0,0,0,0-.131l-.51-.514a.093.093,0,0,0-.135,0Z" transform="translate(-177.045 -177.908)" fill="#d0d0d0"/>
    <path id="Path_347" data-name="Path 347" d="M303.249,307.561l-.519.514a.089.089,0,0,0,0,.131l.519.514a.093.093,0,0,0,.126,0l.518-.514a.1.1,0,0,0,0-.131l-.518-.514a.084.084,0,0,0-.126,0Z" transform="translate(-175.115 -177.909)" fill="#d0d0d0"/>
    <path id="Path_348" data-name="Path 348" d="M309.92,307.554l-.51.514a.089.089,0,0,0,0,.131l.51.514a.1.1,0,0,0,.135,0l.514-.514a.088.088,0,0,0,0-.131l-.506-.514a.093.093,0,0,0-.143,0Z" transform="translate(-178.979 -177.902)" fill="#d0d0d0"/>
    <path id="Path_349" data-name="Path 349" d="M313.255,307.56l-.514.514a.088.088,0,0,0,0,.131l.514.514a.1.1,0,0,0,.131,0l.514-.514a.089.089,0,0,0,0-.131l-.514-.514a.088.088,0,0,0-.131,0Z" transform="translate(-180.906 -177.909)" fill="#d0d0d0"/>
    <path id="Path_350" data-name="Path 350" d="M316.6,307.56l-.514.514a.088.088,0,0,0,0,.131l.514.514a.1.1,0,0,0,.131,0l.514-.514a.089.089,0,0,0,0-.131l-.514-.514a.088.088,0,0,0-.131,0Z" transform="translate(-182.844 -177.909)" fill="#d0d0d0"/>
    <path id="Path_351" data-name="Path 351" d="M299.249,307.56a.093.093,0,0,0-.135,0l-.518.514a.1.1,0,0,0,0,.131l.518.514a.1.1,0,0,0,.135,0l.51-.514a.1.1,0,0,0,0-.131Z" transform="translate(-172.724 -177.908)" fill="#d0d0d0"/>
    <path id="Path_352" data-name="Path 352" d="M292.589,307.56a.093.093,0,0,0-.135,0l-.489.514a.1.1,0,0,0,0,.131l.51.514a.1.1,0,0,0,.135,0l.51-.514a.088.088,0,0,0,0-.131Z" transform="translate(-168.889 -177.908)" fill="#d0d0d0"/>
    <path id="Path_353" data-name="Path 353" d="M295.905,307.56a.088.088,0,0,0-.131,0l-.514.514a.089.089,0,0,0,0,.131l.514.514a.1.1,0,0,0,.131,0l.514-.514a.11.11,0,0,0,0-.131Z" transform="translate(-170.793 -177.909)" fill="#d0d0d0"/>
    <path id="Path_354" data-name="Path 354" d="M289.205,307.56a.088.088,0,0,0-.131,0l-.514.514a.088.088,0,0,0,0,.131l.514.514a.1.1,0,0,0,.131,0l.514-.514a.089.089,0,0,0,0-.131Z" transform="translate(-166.917 -177.909)" fill="#d0d0d0"/>
    <path id="Path_355" data-name="Path 355" d="M285.865,307.56a.088.088,0,0,0-.131,0l-.514.514a.089.089,0,0,0,0,.131l.514.514a.1.1,0,0,0,.131,0l.514-.514a.089.089,0,0,0,0-.131Z" transform="translate(-164.985 -177.909)" fill="#d0d0d0"/>
    <path id="Path_356" data-name="Path 356" d="M281.745,307.56a.088.088,0,0,0-.131,0l-.514.514a.088.088,0,0,0,0,.131l.514.514a.1.1,0,0,0,.131,0l.514-.514a.089.089,0,0,0,0-.131Z" transform="translate(-162.602 -177.909)" fill="#d0d0d0"/>
    <path id="Path_357" data-name="Path 357" d="M278.405,307.56a.093.093,0,0,0-.135,0l-.51.514a.088.088,0,0,0,0,.131l.51.514a.1.1,0,0,0,.135,0l.51-.514a.088.088,0,0,0,0-.131Z" transform="translate(-160.669 -177.908)" fill="#d0d0d0"/>
    <path id="Path_358" data-name="Path 358" d="M268.37,307.56a.088.088,0,0,0-.131,0l-.514.514a.1.1,0,0,0,0,.131l.514.514a.1.1,0,0,0,.131,0l.518-.514a.11.11,0,0,0,0-.131Z" transform="translate(-154.866 -177.909)" fill="#d0d0d0"/>
    <path id="Path_359" data-name="Path 359" d="M271.715,307.56a.088.088,0,0,0-.131,0l-.514.514a.089.089,0,0,0,0,.131l.514.514a.1.1,0,0,0,.131,0l.514-.514a.1.1,0,0,0,0-.131Z" transform="translate(-156.799 -177.909)" fill="#d0d0d0"/>
    <path id="Path_360" data-name="Path 360" d="M275.075,307.56a.088.088,0,0,0-.131,0l-.514.514a.089.089,0,0,0,0,.131l.514.514a.1.1,0,0,0,.131,0l.514-.514a.088.088,0,0,0,0-.131Z" transform="translate(-158.743 -177.909)" fill="#d0d0d0"/>
    <path id="Path_361" data-name="Path 361" d="M264.125,308.72a.1.1,0,0,0,.131,0l.51-.514a.089.089,0,0,0,0-.131l-.51-.514a.088.088,0,0,0-.131,0l-.514.514a.089.089,0,0,0,0,.131Z" transform="translate(-152.484 -177.909)" fill="#d0d0d0"/>
    <path id="Path_362" data-name="Path 362" d="M260.775,308.719a.1.1,0,0,0,.135,0l.51-.514a.1.1,0,0,0,0-.131l-.51-.514a.093.093,0,0,0-.135,0l-.514.514a.088.088,0,0,0,0,.131Z" transform="translate(-150.546 -177.908)" fill="#d0d0d0"/>
    <path id="Path_363" data-name="Path 363" d="M250.23,308.2l.51.514a.1.1,0,0,0,.135,0l.51-.514a.088.088,0,0,0,0-.131l-.51-.514a.093.093,0,0,0-.135,0l-.51.514a.088.088,0,0,0,0,.131Z" transform="translate(-144.743 -177.908)" fill="#d0d0d0"/>
    <path id="Path_364" data-name="Path 364" d="M254.08,308.719a.1.1,0,0,0,.135,0l.514-.514a.088.088,0,0,0,0-.131l-.514-.514a.093.093,0,0,0-.135,0l-.51.514a.088.088,0,0,0,0,.131Z" transform="translate(-146.675 -177.908)" fill="#d0d0d0"/>
    <path id="Path_365" data-name="Path 365" d="M257.468,308.72a.093.093,0,0,0,.126,0l.514-.514a.089.089,0,0,0,0-.131l-.514-.514a.084.084,0,0,0-.126,0l-.5.514a.11.11,0,0,0,0,.131Z" transform="translate(-148.646 -177.909)" fill="#d0d0d0"/>
    <path id="Path_366" data-name="Path 366" d="M18.02,15.452s-2.765-5.644,3.254-8.287a1.9,1.9,0,0,0,.185.114c-5.1,2.668-2.668,8.169-2.668,8.169h1.05s-1.935-5.277,1.96-8.008h0a7.271,7.271,0,0,0,2.58.5h-.24a31.671,31.671,0,0,0-.287,7.515h2.171a31.556,31.556,0,0,0-.291-7.519H25.4a5.807,5.807,0,0,0,3.3-.843,14,14,0,0,1-2.462-1.909c-.8-.843-.923-1.264-1.151-1.332V3.283h.122s.181,0,.181-.16a.173.173,0,0,0-.173-.169h-.131V1.715h.046s.126,0,.126-.114a.11.11,0,0,0-.118-.11h-.055V.173A.16.16,0,0,0,24.932,0a.164.164,0,0,0-.152.173V1.492H24.73s-.118,0-.118.11.122.114.122.114h.046V2.95H24.65a.169.169,0,0,0-.169.169c0,.156.173.16.173.16h.126v.569c-.228.084-.358.5-1.155,1.332A13.838,13.838,0,0,1,21.164,7.09h0c-6.858,2.6-3.743,8.362-3.743,8.362ZM24.9,7.962h-.481C24.574,7.954,24.734,7.962,24.9,7.962ZM21.56,7.334l.173.08Zm-.388-.24Zm.08.059-.038-.025Zm-.042-.034L21.177,7.1Z" transform="translate(-9.67 0)" fill="#d0d0d0"/>
    <path id="Path_367" data-name="Path 367" d="M27.571,18.09c-2.8,2.769-1.349,7.827-1.349,7.827h1.442s-.889-4.826.742-7.633A6.158,6.158,0,0,1,27.571,18.09Z" transform="translate(-14.952 -10.465)" fill="#d0d0d0"/>
    <path id="Path_368" data-name="Path 368" d="M13.347,46.933H31.8V38.386h.717V36.464H28.988V29.4h1.125v-.59c.308-.615,2.7-5.863-3.793-8.3a1.011,1.011,0,0,1-.126.089c4.055,1.749,4.152,4.847,3.793,6.719h-.843A5.789,5.789,0,0,0,26.025,20.7c-.1.051-.211.105-.346.164,2.563,1.787,2.613,4.674,2.344,6.453h-1.18c.207-1.715.177-4.476-1.652-6.276a7.587,7.587,0,0,1-.843.194c1.083,1.8,1.083,4.421.957,6.082H15.024v2.107h1.134v7.039H12.63v1.922h.717Zm3.9-1.18H14.674V40.915c0-.991.573-1.8,1.286-1.8s1.264.805,1.264,1.8Zm4.754,0H18.413V40.915a1.8,1.8,0,1,1,3.587,0Zm4.738,0H23.15V40.915a1.8,1.8,0,1,1,3.587,0Zm3.73,0H27.892V40.915c0-.991.573-1.8,1.264-1.8s1.332.805,1.332,1.8ZM16.419,35.515V31.747c0-.771.451-1.4,1.007-1.4s1,.628,1,1.4v3.768Zm2.913,0V31.747a1.4,1.4,0,1,1,2.795,0v3.768Zm3.692,0V31.747a1.4,1.4,0,1,1,2.795,0v3.768Zm3.692,0V31.747c0-.771.447-1.4,1-1.4s1,.628,1,1.4v3.768Z" transform="translate(-7.307 -11.865)" fill="#d0d0d0"/>
    <path id="Path_369" data-name="Path 369" d="M32.512,146.63H31.8v-8.544h.717V136.16H12.63v1.926h.717v8.544H12.63v1.926H32.512ZM14,145.787v-4.746c0-1.231.712-2.225,1.6-2.225s1.593.995,1.593,2.225v4.746Zm3.895,0v-4.746a2.225,2.225,0,1,1,4.447,0v4.746Zm5.138,0v-4.746a2.225,2.225,0,1,1,4.447,0v4.746Zm5.142,0v-4.746c0-1.231.712-2.225,1.593-2.225s1.6.995,1.6,2.225v4.746Z" transform="translate(-7.307 -78.769)" fill="#d0d0d0"/>
    <path id="Path_370" data-name="Path 370" d="M14.674,92.426H30.421a6.225,6.225,0,0,1,2.044-4.636H12.63a6.225,6.225,0,0,1,2.044,4.636Z" transform="translate(-7.307 -50.787)" fill="#d0d0d0"/>
    <rect id="Rectangle_50" data-name="Rectangle 50" width="15.747" height="14.356" transform="translate(7.368 42.339)" fill="#d0d0d0"/>
    <rect id="Rectangle_51" data-name="Rectangle 51" width="14.643" height="19.873" transform="translate(7.941 76.438)" fill="#d0d0d0"/>
    <path id="Path_371" data-name="Path 371" d="M15.247,172.179H29.894c0-3.094,2.617-5.479,2.617-5.479H12.63S15.247,169.086,15.247,172.179Z" transform="translate(-7.307 -96.437)" fill="#d0d0d0"/>
    <path id="Path_372" data-name="Path 372" d="M12.55,274.23l.514-.514a.089.089,0,0,0,0-.131l-.514-.514a.089.089,0,0,0-.131,0l-.514.514a.1.1,0,0,0,0,.131l.514.514a.089.089,0,0,0,.131,0Z" transform="translate(-6.873 -157.956)" fill="#d0d0d0"/>
    <path id="Path_373" data-name="Path 373" d="M15.882,274.229l.493-.514a.1.1,0,0,0,0-.131l-.51-.514a.093.093,0,0,0-.135,0l-.51.514a.088.088,0,0,0,0,.131l.51.514a.093.093,0,0,0,.152,0Z" transform="translate(-8.788 -157.956)" fill="#d0d0d0"/>
    <path id="Path_374" data-name="Path 374" d="M2.52,274.229l.51-.514a.089.089,0,0,0,0-.131l-.51-.514a.093.093,0,0,0-.135,0l-.514.514a.088.088,0,0,0,0,.131l.514.514a.093.093,0,0,0,.135,0Z" transform="translate(-1.065 -157.956)" fill="#d0d0d0"/>
    <path id="Path_375" data-name="Path 375" d="M5.865,274.229l.51-.514a.088.088,0,0,0,0-.131l-.51-.514a.093.093,0,0,0-.135,0l-.51.514a.088.088,0,0,0,0,.131l.51.514a.093.093,0,0,0,.135,0Z" transform="translate(-3.003 -157.956)" fill="#d0d0d0"/>
    <path id="Path_376" data-name="Path 376" d="M9.21,274.23l.518-.514a.1.1,0,0,0,0-.131l-.518-.514a.089.089,0,0,0-.131,0l-.514.514a.1.1,0,0,0,0,.131l.514.514a.089.089,0,0,0,.131,0Z" transform="translate(-4.94 -157.956)" fill="#d0d0d0"/>
    <path id="Path_377" data-name="Path 377" d="M26.575,274.23a.089.089,0,0,0,.131,0l.514-.514a.089.089,0,0,0,0-.131l-.514-.514a.089.089,0,0,0-.131,0l-.514.514a.089.089,0,0,0,0,.131Z" transform="translate(-15.059 -157.956)" fill="#d0d0d0"/>
    <path id="Path_378" data-name="Path 378" d="M23.259,274.23a.089.089,0,0,0,.131,0l.514-.514a.1.1,0,0,0,0-.131l-.514-.514a.089.089,0,0,0-.131,0l-.514.514a.1.1,0,0,0,0,.131Z" transform="translate(-13.144 -157.956)" fill="#d0d0d0"/>
    <path id="Path_379" data-name="Path 379" d="M19.88,274.23a.089.089,0,0,0,.131,0l.514-.514a.089.089,0,0,0,0-.131l-.514-.514a.089.089,0,0,0-.131,0l-.51.514a.089.089,0,0,0,0,.131Z" transform="translate(-11.189 -157.956)" fill="#d0d0d0"/>
    <rect id="Rectangle_52" data-name="Rectangle 52" width="0.91" height="0.91" rx="0.22" transform="translate(13.754 115.696) rotate(-45)" fill="#d0d0d0"/>
    <path id="Path_380" data-name="Path 380" d="M29.932,274.229a.093.093,0,0,0,.135,0l.51-.514a.089.089,0,0,0,0-.131l-.5-.514a.093.093,0,0,0-.135,0l-.51.514a.088.088,0,0,0,0,.131Z" transform="translate(-17.009 -157.956)" fill="#d0d0d0"/>
    <path id="Path_381" data-name="Path 381" d="M37.515,274.229l.51-.514a.089.089,0,0,0,0-.131l-.51-.514a.093.093,0,0,0-.135,0l-.51.514a.088.088,0,0,0,0,.131l.51.514a.093.093,0,0,0,.135,0Z" transform="translate(-21.313 -157.956)" fill="#d0d0d0"/>
    <path id="Path_382" data-name="Path 382" d="M40.855,274.229l.514-.514a.088.088,0,0,0,0-.131l-.514-.514a.093.093,0,0,0-.135,0l-.51.514a.088.088,0,0,0,0,.131l.51.514a.093.093,0,0,0,.135,0Z" transform="translate(-23.245 -157.956)" fill="#d0d0d0"/>
    <path id="Path_383" data-name="Path 383" d="M44.2,274.23l.514-.514a.089.089,0,0,0,0-.131l-.514-.514a.089.089,0,0,0-.131,0l-.514.514a.089.089,0,0,0,0,.131l.514.514a.089.089,0,0,0,.131,0Z" transform="translate(-25.178 -157.956)" fill="#d0d0d0"/>
    <path id="Path_384" data-name="Path 384" d="M50.868,274.23l.5-.514a.11.11,0,0,0,0-.131l-.518-.514a.088.088,0,0,0-.131,0l-.51.514a.089.089,0,0,0,0,.131l.51.514a.088.088,0,0,0,.148,0Z" transform="translate(-29.03 -157.956)" fill="#d0d0d0"/>
    <path id="Path_385" data-name="Path 385" d="M47.546,274.23l.518-.514a.1.1,0,0,0,0-.131l-.518-.514a.089.089,0,0,0-.131,0l-.51.514a.1.1,0,0,0,0,.131l.51.514a.089.089,0,0,0,.131,0Z" transform="translate(-27.12 -157.956)" fill="#d0d0d0"/>
    <path id="Path_386" data-name="Path 386" d="M55.01,273.07a.093.093,0,0,0-.135,0l-.51.514a.1.1,0,0,0,0,.131l.51.514a.093.093,0,0,0,.135,0l.51-.514a.089.089,0,0,0,0-.131Z" transform="translate(-31.436 -157.956)" fill="#d0d0d0"/>
    <path id="Path_387" data-name="Path 387" d="M58.351,273.071a.084.084,0,0,0-.126,0l-.514.514a.088.088,0,0,0,0,.131l.527.514a.084.084,0,0,0,.126,0l.518-.514a.1.1,0,0,0,0-.131Z" transform="translate(-33.369 -157.956)" fill="#d0d0d0"/>
    <path id="Path_388" data-name="Path 388" d="M61.694,273.07a.089.089,0,0,0-.131,0l-.518.514a.1.1,0,0,0,0,.131l.518.514a.089.089,0,0,0,.131,0l.514-.514a.089.089,0,0,0,0-.131Z" transform="translate(-35.3 -157.956)" fill="#d0d0d0"/>
    <path id="Path_389" data-name="Path 389" d="M65.075,273.07a.093.093,0,0,0-.135,0l-.51.514a.088.088,0,0,0,0,.131l.51.514a.093.093,0,0,0,.135,0l.51-.514a.089.089,0,0,0,0-.131Z" transform="translate(-37.257 -157.956)" fill="#d0d0d0"/>
    <path id="Path_390" data-name="Path 390" d="M68.385,273.07a.089.089,0,0,0-.131,0l-.514.514a.089.089,0,0,0,0,.131l.514.514a.089.089,0,0,0,.131,0l.514-.514a.089.089,0,0,0,0-.131Z" transform="translate(-39.172 -157.956)" fill="#d0d0d0"/>
    <path id="Path_391" data-name="Path 391" d="M12.55,308.72l.514-.514a.089.089,0,0,0,0-.131l-.514-.514a.088.088,0,0,0-.131,0l-.514.514a.1.1,0,0,0,0,.131l.514.514a.1.1,0,0,0,.131,0Z" transform="translate(-6.873 -177.909)" fill="#d0d0d0"/>
    <path id="Path_392" data-name="Path 392" d="M15.882,308.719l.493-.514a.1.1,0,0,0,0-.131l-.51-.514a.093.093,0,0,0-.135,0l-.51.514a.088.088,0,0,0,0,.131l.51.514a.1.1,0,0,0,.152,0Z" transform="translate(-8.788 -177.908)" fill="#d0d0d0"/>
    <path id="Path_393" data-name="Path 393" d="M9.21,308.72l.518-.514a.1.1,0,0,0,0-.131l-.518-.514a.088.088,0,0,0-.131,0l-.514.514a.1.1,0,0,0,0,.131l.514.514a.1.1,0,0,0,.131,0Z" transform="translate(-4.94 -177.909)" fill="#d0d0d0"/>
    <path id="Path_394" data-name="Path 394" d="M5.865,308.719l.51-.514a.088.088,0,0,0,0-.131l-.51-.514a.093.093,0,0,0-.135,0l-.51.514a.088.088,0,0,0,0,.131l.51.514a.1.1,0,0,0,.135,0Z" transform="translate(-3.003 -177.908)" fill="#d0d0d0"/>
    <path id="Path_395" data-name="Path 395" d="M2.52,308.719l.51-.514a.088.088,0,0,0,0-.131l-.51-.514a.093.093,0,0,0-.135,0l-.514.514a.088.088,0,0,0,0,.131l.514.514A.1.1,0,0,0,2.52,308.719Z" transform="translate(-1.065 -177.908)" fill="#d0d0d0"/>
    <path id="Path_396" data-name="Path 396" d="M19.88,308.72a.1.1,0,0,0,.131,0l.514-.514a.089.089,0,0,0,0-.131l-.514-.514a.088.088,0,0,0-.131,0l-.51.514a.089.089,0,0,0,0,.131Z" transform="translate(-11.189 -177.909)" fill="#d0d0d0"/>
    <path id="Path_397" data-name="Path 397" d="M26.575,308.72a.1.1,0,0,0,.131,0l.514-.514a.089.089,0,0,0,0-.131l-.514-.514a.088.088,0,0,0-.131,0l-.514.514a.089.089,0,0,0,0,.131Z" transform="translate(-15.059 -177.909)" fill="#d0d0d0"/>
    <path id="Path_398" data-name="Path 398" d="M23.259,308.72a.1.1,0,0,0,.131,0l.514-.514a.1.1,0,0,0,0-.131l-.514-.514a.088.088,0,0,0-.131,0l-.514.514a.1.1,0,0,0,0,.131Z" transform="translate(-13.144 -177.909)" fill="#d0d0d0"/>
    <path id="Path_399" data-name="Path 399" d="M29.932,308.719a.1.1,0,0,0,.135,0l.51-.514a.088.088,0,0,0,0-.131l-.5-.514a.093.093,0,0,0-.135,0l-.51.514a.088.088,0,0,0,0,.131Z" transform="translate(-17.009 -177.908)" fill="#d0d0d0"/>
    <path id="Path_400" data-name="Path 400" d="M33.26,308.719a.1.1,0,0,0,.135,0l.514-.514a.1.1,0,0,0,0-.131l-.514-.514a.093.093,0,0,0-.135,0l-.51.514a.088.088,0,0,0,0,.131Z" transform="translate(-18.93 -177.908)" fill="#d0d0d0"/>
    <path id="Path_401" data-name="Path 401" d="M37.38,308.719a.1.1,0,0,0,.135,0l.51-.514a.088.088,0,0,0,0-.131l-.51-.514a.093.093,0,0,0-.135,0l-.51.514a.088.088,0,0,0,0,.131Z" transform="translate(-21.313 -177.908)" fill="#d0d0d0"/>
    <path id="Path_402" data-name="Path 402" d="M40.72,308.719a.1.1,0,0,0,.135,0l.514-.514a.088.088,0,0,0,0-.131l-.514-.514a.093.093,0,0,0-.135,0l-.51.514a.088.088,0,0,0,0,.131Z" transform="translate(-23.245 -177.908)" fill="#d0d0d0"/>
    <path id="Path_403" data-name="Path 403" d="M50.737,308.72a.1.1,0,0,0,.131,0l.5-.514a.11.11,0,0,0,0-.131l-.518-.514a.088.088,0,0,0-.131,0l-.51.514a.089.089,0,0,0,0,.131Z" transform="translate(-29.03 -177.909)" fill="#d0d0d0"/>
    <path id="Path_404" data-name="Path 404" d="M47.415,308.72a.1.1,0,0,0,.131,0l.518-.514a.1.1,0,0,0,0-.131l-.518-.514a.088.088,0,0,0-.131,0l-.51.514a.1.1,0,0,0,0,.131Z" transform="translate(-27.12 -177.909)" fill="#d0d0d0"/>
    <path id="Path_405" data-name="Path 405" d="M44.065,308.72a.1.1,0,0,0,.131,0l.514-.514a.089.089,0,0,0,0-.131l-.514-.514a.088.088,0,0,0-.131,0l-.514.514a.089.089,0,0,0,0,.131Z" transform="translate(-25.178 -177.909)" fill="#d0d0d0"/>
    <path id="Path_406" data-name="Path 406" d="M54.365,308.2l.51.514a.1.1,0,0,0,.135,0l.51-.514a.088.088,0,0,0,0-.131l-.51-.514a.093.093,0,0,0-.135,0l-.51.514a.1.1,0,0,0,0,.131Z" transform="translate(-31.436 -177.908)" fill="#d0d0d0"/>
    <path id="Path_407" data-name="Path 407" d="M58.255,308.72a.093.093,0,0,0,.126,0l.518-.514a.1.1,0,0,0,0-.131l-.518-.514a.084.084,0,0,0-.126,0l-.514.514a.088.088,0,0,0,0,.131Z" transform="translate(-33.387 -177.909)" fill="#d0d0d0"/>
    <path id="Path_408" data-name="Path 408" d="M68.255,308.72a.1.1,0,0,0,.131,0l.514-.514a.089.089,0,0,0,0-.131l-.514-.514a.088.088,0,0,0-.131,0l-.514.514a.089.089,0,0,0,0,.131Z" transform="translate(-39.172 -177.909)" fill="#d0d0d0"/>
    <path id="Path_409" data-name="Path 409" d="M64.928,308.719a.1.1,0,0,0,.135,0l.51-.514a.088.088,0,0,0,0-.131l-.5-.514a.093.093,0,0,0-.135,0l-.51.514a.088.088,0,0,0,0,.131Z" transform="translate(-37.257 -177.908)" fill="#d0d0d0"/>
    <path id="Path_410" data-name="Path 410" d="M61.564,308.72a.1.1,0,0,0,.131,0l.514-.514a.089.089,0,0,0,0-.131l-.514-.514a.088.088,0,0,0-.131,0l-.518.514a.1.1,0,0,0,0,.131Z" transform="translate(-35.3 -177.909)" fill="#d0d0d0"/>
    <path id="Path_411" data-name="Path 411" d="M30.739,295.645s-5.808,1.328-5.808,5.108h0c0-3.793,5.808-5.108,5.808-5.108v-4.481H30.1v-9.1H1.85v9.1H1.23v1.446H8.6V294.2H1.23v1.442s5.8,1.328,5.8,5.108h-1.1v1.808h18.74v1.812H5.938v1.808h1.1v51.359h3.574V306.182H14.2v51.359h3.578V306.182h3.587v51.359h3.574V306.182h0v51.359h4.278V296.184a11.075,11.075,0,0,1,1.522-.472.578.578,0,0,0-.19.046v61.783h11.8V292.058H30.739Zm0-3.035V294.2h-7.38V292.61Zm-2.483-6.782a2.794,2.794,0,0,1,.232-1.383l.493-.894.493.894a2.794,2.794,0,0,1,.232,1.383v3.659h-1.45Zm-4.636,0a1.757,1.757,0,0,1,.451-1.383l.965-.894.969.894a1.749,1.749,0,0,1,.455,1.383v3.659H23.637Zm-6.377,0a1.534,1.534,0,0,1,.658-1.383l1.4-.894,1.4.894a1.534,1.534,0,0,1,.666,1.383v3.659H17.259Zm-1.264,5.34v1.446h7.376v1.593H15.978v1.442h0v-4.485Zm-5.4-5.34a1.534,1.534,0,0,1,.67-1.387l1.4-.894,1.4.894a1.534,1.534,0,0,1,.636,1.387v3.659h-4.11Zm-5.1,0a1.757,1.757,0,0,1,.451-1.383l.969-.894.969.894a1.782,1.782,0,0,1,.434,1.383v3.659H5.474Zm-3.229,0a2.794,2.794,0,0,1,.232-1.383l.493-.894.493.894a2.794,2.794,0,0,1,.232,1.383v3.659H2.246ZM8.6,292.614h7.376v1.593H8.6Zm17.425,13.572h0v-1.812h0Zm0-3.621h0v-1.808h0Zm5.817-9.151h9.205v50.828H31.843Z" transform="translate(-0.712 -163.173)" fill="#d0d0d0"/>
    <path id="Path_412" data-name="Path 412" d="M76.09,321.794h7.321V311H76.09Zm.843-5.29a2.093,2.093,0,0,1,.906-1.9l1.926-1.235,1.926,1.235a2.1,2.1,0,0,1,.9,1.9v2.8H76.92Z" transform="translate(-44.019 -179.915)" fill="#d0d0d0"/>
    <path id="Path_413" data-name="Path 413" d="M76.09,351.442h7.321V340.66H76.09Zm.843-5.285a2.093,2.093,0,0,1,.906-1.9l1.926-1.239,1.926,1.239a2.1,2.1,0,0,1,.9,1.9v2.8H76.92Z" transform="translate(-44.019 -197.074)" fill="#d0d0d0"/>
    <path id="Path_414" data-name="Path 414" d="M76.09,381.072h7.321V370.29H76.09Zm.843-5.285a2.089,2.089,0,0,1,.906-1.9l1.926-1.239,1.926,1.239a2.093,2.093,0,0,1,.9,1.9V378.6H76.92Z" transform="translate(-44.019 -214.215)" fill="#d0d0d0"/>
    <path id="Path_415" data-name="Path 415" d="M76.09,410.7h7.321V399.92H76.09Zm.843-5.285a2.089,2.089,0,0,1,.906-1.9l1.926-1.239,1.926,1.239a2.093,2.093,0,0,1,.9,1.9v2.8H76.92Z" transform="translate(-44.019 -231.356)" fill="#d0d0d0"/>
    <path id="Path_416" data-name="Path 416" d="M234.766,311H227.44v10.786h7.326Zm-.843,8.3h-5.648v-2.8a2.1,2.1,0,0,1,.9-1.9l1.926-1.235,1.926,1.235a2.1,2.1,0,0,1,.9,1.9Z" transform="translate(-131.575 -179.915)" fill="#d0d0d0"/>
    <path id="Path_417" data-name="Path 417" d="M234.766,340.66H227.44v10.782h7.326Zm-.843,8.295h-5.648v-2.8a2.1,2.1,0,0,1,.9-1.9l1.926-1.239,1.926,1.239a2.1,2.1,0,0,1,.9,1.9Z" transform="translate(-131.575 -197.074)" fill="#d0d0d0"/>
    <path id="Path_418" data-name="Path 418" d="M234.766,370.29H227.44v10.782h7.326Zm-.843,8.295h-5.648v-2.8a2.091,2.091,0,0,1,.9-1.9l1.926-1.239,1.926,1.239a2.091,2.091,0,0,1,.9,1.9Z" transform="translate(-131.575 -214.215)" fill="#d0d0d0"/>
    <path id="Path_419" data-name="Path 419" d="M234.766,399.92H227.44V410.7h7.326Zm-.843,8.3h-5.648v-2.786a2.091,2.091,0,0,1,.9-1.9L231.1,402.3l1.926,1.239a2.091,2.091,0,0,1,.9,1.9Z" transform="translate(-131.575 -231.356)" fill="#d0d0d0"/>
    <path id="Path_420" data-name="Path 420" d="M150.411,275.58H148.62a4.982,4.982,0,0,0,.658,2.293l1.522-.961a3.056,3.056,0,0,1-.388-1.332Z" transform="translate(-85.978 -159.425)" fill="#d0d0d0"/>
    <path id="Path_421" data-name="Path 421" d="M162.949,263.736a4.855,4.855,0,0,0-1.989-.506v1.8a3.16,3.16,0,0,1,1.142.282Z" transform="translate(-93.116 -152.28)" fill="#d0d0d0"/>
    <path id="Path_422" data-name="Path 422" d="M150.7,270.743l-1.576-.843a4.94,4.94,0,0,0-.5,1.994h1.791A3.123,3.123,0,0,1,150.7,270.743Z" transform="translate(-85.978 -156.139)" fill="#d0d0d0"/>
    <path id="Path_423" data-name="Path 423" d="M159.426,271.243a2.8,2.8,0,1,0-2.8,2.8A2.8,2.8,0,0,0,159.426,271.243Z" transform="translate(-88.986 -155.294)" fill="#d0d0d0"/>
    <path id="Path_424" data-name="Path 424" d="M167.39,276.7l1.581.843a4.918,4.918,0,0,0,.5-1.989h-1.791A3.257,3.257,0,0,1,167.39,276.7Z" transform="translate(-96.836 -159.407)" fill="#d0d0d0"/>
    <path id="Path_425" data-name="Path 425" d="M161,282.2v1.812a4.961,4.961,0,0,0,2.293-.666l-.957-1.513A3.342,3.342,0,0,1,161,282.2Z" transform="translate(-93.139 -163.04)" fill="#d0d0d0"/>
    <path id="Path_426" data-name="Path 426" d="M155.26,283.586a5.029,5.029,0,0,0,2,.527V282.3a3.4,3.4,0,0,1-1.134-.291Z" transform="translate(-89.819 -163.144)" fill="#d0d0d0"/>
    <path id="Path_427" data-name="Path 427" d="M152.227,279.57l-1.517.961a5.028,5.028,0,0,0,1.551,1.446l.843-1.572A3.422,3.422,0,0,1,152.227,279.57Z" transform="translate(-87.187 -161.733)" fill="#d0d0d0"/>
    <path id="Path_428" data-name="Path 428" d="M165,280.041l.961,1.522a5.024,5.024,0,0,0,1.45-1.56l-1.576-.843a3.291,3.291,0,0,1-.835.881Z" transform="translate(-95.453 -161.496)" fill="#d0d0d0"/>
    <path id="Path_429" data-name="Path 429" d="M156.859,265.026v-1.8a4.952,4.952,0,0,0-2.289.662l.957,1.517A3.129,3.129,0,0,1,156.859,265.026Z" transform="translate(-89.42 -152.28)" fill="#d0d0d0"/>
    <path id="Path_430" data-name="Path 430" d="M152.685,266.847l-.961-1.517a4.966,4.966,0,0,0-1.454,1.551l1.581.843A3.271,3.271,0,0,1,152.685,266.847Z" transform="translate(-86.932 -153.495)" fill="#d0d0d0"/>
    <path id="Path_431" data-name="Path 431" d="M165.431,267.3l1.517-.961a5.113,5.113,0,0,0-1.555-1.45l-.843,1.581a3.288,3.288,0,0,1,.881.83Z" transform="translate(-95.193 -153.24)" fill="#d0d0d0"/>
    <path id="Path_432" data-name="Path 432" d="M167.17,270.121a3.258,3.258,0,0,1,.384,1.332h1.791a4.97,4.97,0,0,0-.662-2.293Z" transform="translate(-96.709 -155.71)" fill="#d0d0d0"/>
    <path id="Path_433" data-name="Path 433" d="M147.29,301.027l-1.724-2.006-1.741,2.006-1.737-2.006-1.737,2.006-1.741-2.006-1.737,2.006-1.741-2.006-1.737,2.006-1.741-2.006-1.737,2.006-1.741-2.006-1.737,2.006-1.741-2.006-1.737,2.006-1.741-2.006-1.737,2.006-1.741-2.006-1.737,2.006-1.741-2.006-1.737,2.006-1.741-2.006-1.737,2.006-1.737-2.006-1.741,2.006-1.741-2.006-1.741,2.006-1.737-2.006-1.741,2.006,1.4-1.61v67.924h2.95v-22.3c0-15.562-.32-17.049,2.234-21.29s13.909-10.643,16.5-12.3c2.7-1.72,2.95-3.532,2.95-3.532s.308,1.812,3.009,3.532c2.6,1.652,13.943,8.067,16.5,12.3s2.234,5.728,2.234,21.29v22.3h2.98v-67.92l-.358-.422Z" transform="translate(-57.052 -172.973)" fill="#d0d0d0"/>
    <path id="Path_434" data-name="Path 434" d="M138.014,333.986c-2.529-1.475-2.676-2.061-2.676-2.061l-.055-.135v.135s-.143.586-2.672,2.061c-2.411,1.408-11.895,6.461-13.939,10.537-1.935,3.882-1.686,5.34-1.686,19.861V386.3h36.67V364.384c0-14.52.253-15.979-1.686-19.861C149.9,340.431,140.425,335.377,138.014,333.986Z" transform="translate(-67.671 -191.942)" fill="#d0d0d0"/>
  </g>
</svg>
