<svg xmlns="http://www.w3.org/2000/svg" width="12.579" height="12.579" viewBox="0 0 12.579 12.579">
  <g id="noun-copyright-60824" transform="translate(-74.252 -28)">
    <path id="Path_447" data-name="Path 447" d="M104.29,28a6.29,6.29,0,1,0,6.29,6.29A6.3,6.3,0,0,0,104.29,28Zm0,11.732a5.443,5.443,0,1,1,5.443-5.443A5.449,5.449,0,0,1,104.29,39.732Z" transform="translate(-23.748 0)" fill="#fff"/>
    <path id="Path_448" data-name="Path 448" d="M210.521,130.5a2.7,2.7,0,0,1,1.932.811.518.518,0,0,0,.738-.727,3.728,3.728,0,0,0-2.67-1.118,3.819,3.819,0,0,0,0,7.637,3.735,3.735,0,0,0,2.527-.984.516.516,0,0,0-.7-.763,2.711,2.711,0,0,1-1.828.713,2.785,2.785,0,0,1,0-5.568Z" transform="translate(-129.781 -98.935)" fill="#fff"/>
  </g>
</svg>
