<svg id="noun-digital-art-and-design-1909737" xmlns="http://www.w3.org/2000/svg" width="98.221" height="98.223" viewBox="0 0 98.221 98.223">
  <path id="Path_62" data-name="Path 62" d="M214.268,93.331H130.378a2.046,2.046,0,0,0,0,4.093h81.844v67.521a6.14,6.14,0,0,1-6.138,6.138H165.161a3.854,3.854,0,0,1-4.092-4.093V161.7l20.462-20.462,21.06,21.061a2.046,2.046,0,0,0,2.894-2.893l-10.83-10.83,7.337-7.337,2.646,2.646a2.046,2.046,0,0,0,2.893-2.893l-4.092-4.092h0a2.046,2.046,0,0,0-2.893,0l-8.784,8.784-8.784-8.784a2.046,2.046,0,0,0-2.893,0l-19.015,19.015V119.931a7.955,7.955,0,0,0-8.185-8.185H140.608a7.955,7.955,0,0,0-8.184,8.185v8.185a2.046,2.046,0,0,0,4.092,0v-8.185a3.853,3.853,0,0,1,4.092-4.092h12.277a3.853,3.853,0,0,1,4.093,4.092v47.06a7.955,7.955,0,0,0,8.184,8.185h40.923a10.242,10.242,0,0,0,10.23-10.23V95.378a2.047,2.047,0,0,0-2.046-2.046Z" transform="translate(-118.101 -76.956)" fill="#d55959"/>
  <path id="Path_63" data-name="Path 63" d="M72.047,51.119a2.045,2.045,0,0,0,2.046-2.046V10.2a6.14,6.14,0,0,1,6.138-6.138h77.741a5.84,5.84,0,0,1,6.151,6.138,2.046,2.046,0,1,0,4.092,0,9.864,9.864,0,0,0-10.23-10.23H80.231A10.242,10.242,0,0,0,70,10.2V49.073a2.047,2.047,0,0,0,2.046,2.046Z" transform="translate(-70 0.041)" fill="#d55959"/>
  <path id="Path_64" data-name="Path 64" d="M130.378,46.668a2.046,2.046,0,1,0,0,4.092h4.092a2.046,2.046,0,1,0,0-4.092Z" transform="translate(-118.101 -38.476)" fill="#d55959"/>
  <path id="Path_65" data-name="Path 65" d="M200.378,46.668a2.046,2.046,0,1,0,0,4.092h4.092a2.046,2.046,0,1,0,0-4.092Z" transform="translate(-175.825 -38.476)" fill="#d55959"/>
  <path id="Path_66" data-name="Path 66" d="M538.712,46.668a2.046,2.046,0,0,0,0,4.092H542.8a2.046,2.046,0,0,0,0-4.092Z" transform="translate(-454.822 -38.476)" fill="#d55959"/>
  <path id="Path_67" data-name="Path 67" d="M92.5,326.67H80.228A10.242,10.242,0,0,0,70,336.9v20.462a10.242,10.242,0,0,0,10.23,10.23H92.5a10.242,10.242,0,0,0,10.231-10.23V336.9A10.242,10.242,0,0,0,92.5,326.67Zm6.138,30.691A6.139,6.139,0,0,1,92.5,363.5H80.228a6.14,6.14,0,0,1-6.138-6.138V336.9a6.139,6.139,0,0,1,6.138-6.138h4.093v8.185H80.228a2.046,2.046,0,0,0,0,4.092H92.5a2.046,2.046,0,1,0,0-4.092H88.413v-8.185H92.5a6.138,6.138,0,0,1,6.138,6.138Z" transform="translate(-69.998 -269.372)" fill="#d55959"/>
  <path id="Path_68" data-name="Path 68" d="M389.7,218.187a8.184,8.184,0,1,0-2.4,5.787A8.186,8.186,0,0,0,389.7,218.187Zm-12.277,0a4.092,4.092,0,1,1,1.2,2.893A4.092,4.092,0,0,1,377.427,218.187Z" transform="translate(-320.135 -173.165)" fill="#d55959"/>
</svg>
