<svg id="noun-packaging-design-2234572" xmlns="http://www.w3.org/2000/svg" width="100.221" height="93.539" viewBox="0 0 100.221 93.539">
  <path id="Path_110" data-name="Path 110" d="M271.25,385h13.363v3.341H271.25Z" transform="translate(-236.173 -321.528)" fill="#8cd958"/>
  <path id="Path_111" data-name="Path 111" d="M271.25,420h13.363v3.341H271.25Z" transform="translate(-236.173 -349.846)" fill="#8cd958"/>
  <path id="Path_112" data-name="Path 112" d="M271.25,455h13.363v3.341H271.25Z" transform="translate(-236.173 -378.165)" fill="#8cd958"/>
  <path id="Path_113" data-name="Path 113" d="M271.25,490h3.341v3.341H271.25Z" transform="translate(-236.173 -406.483)" fill="#8cd958"/>
  <path id="Path_114" data-name="Path 114" d="M124.172,146.044H207.69a1.67,1.67,0,0,0,1.67-1.67V89.4a9.967,9.967,0,0,0-5.539-8.963L199.338,78.2V54.175a1.67,1.67,0,0,0-1.67-1.67H187.645a1.67,1.67,0,0,0-1.67,1.67V78.2l-4.483,2.242a9.967,9.967,0,0,0-5.539,8.963v3.19h-5.011V69.208a1.67,1.67,0,0,0-1.67-1.67h-5.011V61.691a9.187,9.187,0,0,0-16.7-5.265,9.187,9.187,0,0,0-16.7,5.265v5.846h-6.681a1.67,1.67,0,0,0-1.67,1.67v75.166a1.67,1.67,0,0,0,1.67,1.67Zm27.619-43.429h22.717l-4.455,6.681H147.336Zm29.4,6.681h-7.127l3.561-5.345Zm-35.3,3.341h23.385V142.7H145.887ZM182.634,142.7H172.612V112.637h10.022Zm23.385-43.429h-8.352v3.341h8.352v3.341h-8.352V109.3h8.352v3.341h-8.352v3.341h8.352v16.7H194.327V95.933h11.692ZM196,69.208h-6.681V65.867H196Zm0-13.363v6.681h-6.681V55.845ZM179.294,89.4a6.64,6.64,0,0,1,3.693-5.975l5.4-2.694a1.67,1.67,0,0,0,.924-1.5V72.548H196V79.23a1.671,1.671,0,0,0,.924,1.5l5.405,2.7h0a6.64,6.64,0,0,1,3.693,5.975v3.19H192.656a1.67,1.67,0,0,0-1.67,1.67v40.088a1.67,1.67,0,0,0,1.67,1.67h13.363V142.7H185.975V110.966a1.632,1.632,0,0,0-.306-.91l.025-.016-6.4-9.6Zm-3.341,9.871H152.568V95.933h23.385Zm-8.352-28.4V92.593H157.579V70.878h3.341V89.252h3.341V70.878ZM155.074,55.845a5.846,5.846,0,0,1,5.846,5.846v5.846H149.227V61.691a5.846,5.846,0,0,1,5.846-5.846Zm-20.88,5.846a5.846,5.846,0,1,1,11.692,0v5.846H134.193Zm-8.352,9.187h5.011v5.011h3.341V70.878h11.692v5.011h3.341V70.878h5.011V92.593H150.9a1.67,1.67,0,0,0-1.67,1.67v6.18l-6.4,9.6.025.016a1.627,1.627,0,0,0-.306.905V142.7h-16.7Z" transform="translate(-115.82 -52.505)" fill="#8cd958"/>
  <path id="Path_115" data-name="Path 115" d="M516.25,437.5h3.341v3.341H516.25Z" transform="translate(-434.403 -364.006)" fill="#8cd958"/>
  <path id="Path_116" data-name="Path 116" d="M166.25,210h13.363v3.341H166.25Z" transform="translate(-151.217 -179.935)" fill="#8cd958"/>
  <path id="Path_117" data-name="Path 117" d="M166.25,245h13.363v3.341H166.25Z" transform="translate(-151.217 -208.253)" fill="#8cd958"/>
  <path id="Path_118" data-name="Path 118" d="M166.25,280h13.363v3.341H166.25Z" transform="translate(-151.217 -236.572)" fill="#8cd958"/>
  <path id="Path_119" data-name="Path 119" d="M166.25,490h3.341v3.341H166.25Z" transform="translate(-151.217 -406.483)" fill="#8cd958"/>
  <path id="Path_120" data-name="Path 120" d="M549.619,167.558l-.788-.394-1.494,2.99.787.392a14.952,14.952,0,0,1,8.311,13.446v18.073h3.341V183.992a18.274,18.274,0,0,0-10.157-16.434Z" transform="translate(-459.555 -145.276)" fill="#8cd958"/>
  <path id="Path_121" data-name="Path 121" d="M595,367.5h3.341v3.341H595Z" transform="translate(-498.12 -307.368)" fill="#8cd958"/>
  <path id="Path_122" data-name="Path 122" d="M87.5,271.25h3.341v43.429H87.5Z" transform="translate(-87.5 -229.492)" fill="#8cd958"/>
  <path id="Path_123" data-name="Path 123" d="M87.5,236.25h3.341v3.341H87.5Z" transform="translate(-87.5 -201.174)" fill="#8cd958"/>
</svg>
